<svg xmlns="http://www.w3.org/2000/svg" xmlns:xlink="http://www.w3.org/1999/xlink" viewBox="0 0 288.22 284.41"><defs><style>.cls-1{isolation:isolate;}.cls-2{fill:url(#Unbenannter_Verlauf_4);}.cls-3{fill:url(#Unbenannter_Verlauf_4-2);}.cls-10,.cls-100,.cls-101,.cls-102,.cls-103,.cls-106,.cls-107,.cls-108,.cls-109,.cls-11,.cls-112,.cls-113,.cls-114,.cls-115,.cls-118,.cls-119,.cls-12,.cls-120,.cls-121,.cls-124,.cls-125,.cls-126,.cls-127,.cls-13,.cls-16,.cls-17,.cls-18,.cls-19,.cls-22,.cls-23,.cls-24,.cls-25,.cls-28,.cls-29,.cls-30,.cls-31,.cls-34,.cls-35,.cls-36,.cls-37,.cls-4,.cls-40,.cls-41,.cls-42,.cls-43,.cls-46,.cls-47,.cls-48,.cls-49,.cls-5,.cls-52,.cls-53,.cls-54,.cls-55,.cls-58,.cls-59,.cls-6,.cls-60,.cls-61,.cls-64,.cls-65,.cls-66,.cls-67,.cls-7,.cls-70,.cls-71,.cls-72,.cls-73,.cls-76,.cls-77,.cls-78,.cls-79,.cls-82,.cls-83,.cls-84,.cls-85,.cls-88,.cls-89,.cls-90,.cls-91,.cls-94,.cls-95,.cls-96,.cls-97{opacity:0.45;mix-blend-mode:multiply;}.cls-4{fill:url(#Unbenannter_Verlauf_6);}.cls-5{fill:url(#Unbenannter_Verlauf_6-2);}.cls-6{fill:url(#Unbenannter_Verlauf_6-3);}.cls-7{fill:url(#Unbenannter_Verlauf_6-4);}.cls-104,.cls-110,.cls-116,.cls-122,.cls-128,.cls-14,.cls-20,.cls-26,.cls-32,.cls-38,.cls-44,.cls-50,.cls-56,.cls-62,.cls-68,.cls-74,.cls-8,.cls-80,.cls-86,.cls-92,.cls-98{mix-blend-mode:overlay;}.cls-8{fill:url(#Unbenannter_Verlauf_5);}.cls-9{fill:url(#Unbenannter_Verlauf_4-3);}.cls-10{fill:url(#Unbenannter_Verlauf_6-5);}.cls-11{fill:url(#Unbenannter_Verlauf_6-6);}.cls-12{fill:url(#Unbenannter_Verlauf_6-7);}.cls-13{fill:url(#Unbenannter_Verlauf_6-8);}.cls-14{fill:url(#Unbenannter_Verlauf_5-2);}.cls-15{fill:url(#Unbenannter_Verlauf_4-4);}.cls-16{fill:url(#Unbenannter_Verlauf_6-9);}.cls-17{fill:url(#Unbenannter_Verlauf_6-10);}.cls-18{fill:url(#Unbenannter_Verlauf_6-11);}.cls-19{fill:url(#Unbenannter_Verlauf_6-12);}.cls-20{fill:url(#Unbenannter_Verlauf_5-3);}.cls-21{fill:url(#Unbenannter_Verlauf_4-5);}.cls-22{fill:url(#Unbenannter_Verlauf_6-13);}.cls-23{fill:url(#Unbenannter_Verlauf_6-14);}.cls-24{fill:url(#Unbenannter_Verlauf_6-15);}.cls-25{fill:url(#Unbenannter_Verlauf_6-16);}.cls-26{fill:url(#Unbenannter_Verlauf_5-4);}.cls-27{fill:url(#Unbenannter_Verlauf_4-6);}.cls-28{fill:url(#Unbenannter_Verlauf_6-17);}.cls-29{fill:url(#Unbenannter_Verlauf_6-18);}.cls-30{fill:url(#Unbenannter_Verlauf_6-19);}.cls-31{fill:url(#Unbenannter_Verlauf_6-20);}.cls-32{fill:url(#Unbenannter_Verlauf_5-5);}.cls-33{fill:url(#Unbenannter_Verlauf_4-7);}.cls-34{fill:url(#Unbenannter_Verlauf_6-21);}.cls-35{fill:url(#Unbenannter_Verlauf_6-22);}.cls-36{fill:url(#Unbenannter_Verlauf_6-23);}.cls-37{fill:url(#Unbenannter_Verlauf_6-24);}.cls-38{fill:url(#Unbenannter_Verlauf_5-6);}.cls-39{fill:url(#Unbenannter_Verlauf_4-8);}.cls-40{fill:url(#Unbenannter_Verlauf_6-25);}.cls-41{fill:url(#Unbenannter_Verlauf_6-26);}.cls-42{fill:url(#Unbenannter_Verlauf_6-27);}.cls-43{fill:url(#Unbenannter_Verlauf_6-28);}.cls-44{fill:url(#Unbenannter_Verlauf_5-7);}.cls-45{fill:url(#Unbenannter_Verlauf_4-9);}.cls-46{fill:url(#Unbenannter_Verlauf_6-29);}.cls-47{fill:url(#Unbenannter_Verlauf_6-30);}.cls-48{fill:url(#Unbenannter_Verlauf_6-31);}.cls-49{fill:url(#Unbenannter_Verlauf_6-32);}.cls-50{fill:url(#Unbenannter_Verlauf_5-8);}.cls-51{fill:url(#Unbenannter_Verlauf_4-10);}.cls-52{fill:url(#Unbenannter_Verlauf_6-33);}.cls-53{fill:url(#Unbenannter_Verlauf_6-34);}.cls-54{fill:url(#Unbenannter_Verlauf_6-35);}.cls-55{fill:url(#Unbenannter_Verlauf_6-36);}.cls-56{fill:url(#Unbenannter_Verlauf_5-9);}.cls-57{fill:url(#Unbenannter_Verlauf_4-11);}.cls-58{fill:url(#Unbenannter_Verlauf_6-37);}.cls-59{fill:url(#Unbenannter_Verlauf_6-38);}.cls-60{fill:url(#Unbenannter_Verlauf_6-39);}.cls-61{fill:url(#Unbenannter_Verlauf_6-40);}.cls-62{fill:url(#Unbenannter_Verlauf_5-10);}.cls-63{fill:url(#Unbenannter_Verlauf_4-12);}.cls-64{fill:url(#Unbenannter_Verlauf_6-41);}.cls-65{fill:url(#Unbenannter_Verlauf_6-42);}.cls-66{fill:url(#Unbenannter_Verlauf_6-43);}.cls-67{fill:url(#Unbenannter_Verlauf_6-44);}.cls-68{fill:url(#Unbenannter_Verlauf_5-11);}.cls-69{fill:url(#Unbenannter_Verlauf_4-13);}.cls-70{fill:url(#Unbenannter_Verlauf_6-45);}.cls-71{fill:url(#Unbenannter_Verlauf_6-46);}.cls-72{fill:url(#Unbenannter_Verlauf_6-47);}.cls-73{fill:url(#Unbenannter_Verlauf_6-48);}.cls-74{fill:url(#Unbenannter_Verlauf_5-12);}.cls-75{fill:url(#Unbenannter_Verlauf_4-14);}.cls-76{fill:url(#Unbenannter_Verlauf_6-49);}.cls-77{fill:url(#Unbenannter_Verlauf_6-50);}.cls-78{fill:url(#Unbenannter_Verlauf_6-51);}.cls-79{fill:url(#Unbenannter_Verlauf_6-52);}.cls-80{fill:url(#Unbenannter_Verlauf_5-13);}.cls-81{fill:url(#Unbenannter_Verlauf_4-15);}.cls-82{fill:url(#Unbenannter_Verlauf_6-53);}.cls-83{fill:url(#Unbenannter_Verlauf_6-54);}.cls-84{fill:url(#Unbenannter_Verlauf_6-55);}.cls-85{fill:url(#Unbenannter_Verlauf_6-56);}.cls-86{fill:url(#Unbenannter_Verlauf_5-14);}.cls-87{fill:url(#Unbenannter_Verlauf_4-16);}.cls-88{fill:url(#Unbenannter_Verlauf_6-57);}.cls-89{fill:url(#Unbenannter_Verlauf_6-58);}.cls-90{fill:url(#Unbenannter_Verlauf_6-59);}.cls-91{fill:url(#Unbenannter_Verlauf_6-60);}.cls-92{fill:url(#Unbenannter_Verlauf_5-15);}.cls-93{fill:url(#Unbenannter_Verlauf_4-17);}.cls-94{fill:url(#Unbenannter_Verlauf_6-61);}.cls-95{fill:url(#Unbenannter_Verlauf_6-62);}.cls-96{fill:url(#Unbenannter_Verlauf_6-63);}.cls-97{fill:url(#Unbenannter_Verlauf_6-64);}.cls-98{fill:url(#Unbenannter_Verlauf_5-16);}.cls-99{fill:url(#Unbenannter_Verlauf_4-18);}.cls-100{fill:url(#Unbenannter_Verlauf_6-65);}.cls-101{fill:url(#Unbenannter_Verlauf_6-66);}.cls-102{fill:url(#Unbenannter_Verlauf_6-67);}.cls-103{fill:url(#Unbenannter_Verlauf_6-68);}.cls-104{fill:url(#Unbenannter_Verlauf_5-17);}.cls-105{fill:url(#Unbenannter_Verlauf_4-19);}.cls-106{fill:url(#Unbenannter_Verlauf_6-69);}.cls-107{fill:url(#Unbenannter_Verlauf_6-70);}.cls-108{fill:url(#Unbenannter_Verlauf_6-71);}.cls-109{fill:url(#Unbenannter_Verlauf_6-72);}.cls-110{fill:url(#Unbenannter_Verlauf_5-18);}.cls-111{fill:url(#Unbenannter_Verlauf_4-20);}.cls-112{fill:url(#Unbenannter_Verlauf_6-73);}.cls-113{fill:url(#Unbenannter_Verlauf_6-74);}.cls-114{fill:url(#Unbenannter_Verlauf_6-75);}.cls-115{fill:url(#Unbenannter_Verlauf_6-76);}.cls-116{fill:url(#Unbenannter_Verlauf_5-19);}.cls-117{fill:url(#Unbenannter_Verlauf_4-21);}.cls-118{fill:url(#Unbenannter_Verlauf_6-77);}.cls-119{fill:url(#Unbenannter_Verlauf_6-78);}.cls-120{fill:url(#Unbenannter_Verlauf_6-79);}.cls-121{fill:url(#Unbenannter_Verlauf_6-80);}.cls-122{fill:url(#Unbenannter_Verlauf_5-20);}.cls-123{fill:url(#Unbenannter_Verlauf_4-22);}.cls-124{fill:url(#Unbenannter_Verlauf_6-81);}.cls-125{fill:url(#Unbenannter_Verlauf_6-82);}.cls-126{fill:url(#Unbenannter_Verlauf_6-83);}.cls-127{fill:url(#Unbenannter_Verlauf_6-84);}.cls-128{fill:url(#Unbenannter_Verlauf_5-21);}</style><linearGradient id="Unbenannter_Verlauf_4" x1="-936.27" y1="195.97" x2="-937.44" y2="306.33" gradientTransform="matrix(-0.98, 0.22, 0.22, 0.98, -783.79, 196.06)" gradientUnits="userSpaceOnUse"><stop offset="0.18" stop-color="#ed69ed"/><stop offset="1" stop-color="#ba2b98"/></linearGradient><linearGradient id="Unbenannter_Verlauf_4-2" x1="-1195.82" y1="684.44" x2="-1194.32" y2="561.5" gradientTransform="matrix(-0.98, 0.2, 0.2, 0.98, -1139.11, -255.11)" xlink:href="#Unbenannter_Verlauf_4"/><linearGradient id="Unbenannter_Verlauf_6" x1="567.09" y1="1771.93" x2="566.59" y2="1657.21" gradientTransform="matrix(0.63, 0.78, 0.78, -0.63, -1126.2, 448.7)" gradientUnits="userSpaceOnUse"><stop offset="0.18" stop-color="#ed69ed"/><stop offset="0.58" stop-color="#9e4558"/></linearGradient><linearGradient id="Unbenannter_Verlauf_6-2" x1="572.31" y1="1770.34" x2="571.81" y2="1655.92" xlink:href="#Unbenannter_Verlauf_6"/><linearGradient id="Unbenannter_Verlauf_6-3" x1="565.82" y1="1776.52" x2="565.31" y2="1660.92" xlink:href="#Unbenannter_Verlauf_6"/><linearGradient id="Unbenannter_Verlauf_6-4" x1="566.63" y1="1778.11" x2="566.11" y2="1662.21" xlink:href="#Unbenannter_Verlauf_6"/><linearGradient id="Unbenannter_Verlauf_5" x1="-1004.17" y1="199.2" x2="-1003.45" y2="139.81" gradientTransform="matrix(-0.95, 0.31, 0.31, 0.95, -859.02, 222.19)" gradientUnits="userSpaceOnUse"><stop offset="0.28" stop-color="#af3379"/><stop offset="1" stop-color="#ba2b98"/></linearGradient><linearGradient id="Unbenannter_Verlauf_4-3" x1="-1063.72" y1="548.08" x2="-1062.31" y2="432.39" gradientTransform="matrix(-1, 0.03, 0.03, 1, -904.44, -346.34)" xlink:href="#Unbenannter_Verlauf_4"/><linearGradient id="Unbenannter_Verlauf_6-5" x1="386.53" y1="1668.13" x2="386.06" y2="1562.97" gradientTransform="matrix(0.48, 0.88, 0.88, -0.48, -1015.36, 349.52)" xlink:href="#Unbenannter_Verlauf_6"/><linearGradient id="Unbenannter_Verlauf_6-6" x1="391.16" y1="1658.44" x2="390.7" y2="1555.11" gradientTransform="matrix(0.48, 0.88, 0.88, -0.48, -1015.36, 349.52)" xlink:href="#Unbenannter_Verlauf_6"/><linearGradient id="Unbenannter_Verlauf_6-7" x1="385.96" y1="1696.49" x2="385.47" y2="1585.88" gradientTransform="matrix(0.48, 0.88, 0.88, -0.48, -1015.36, 349.52)" xlink:href="#Unbenannter_Verlauf_6"/><linearGradient id="Unbenannter_Verlauf_6-8" x1="387.02" y1="1706.2" x2="386.52" y2="1593.78" gradientTransform="matrix(0.48, 0.88, 0.88, -0.48, -1015.36, 349.52)" xlink:href="#Unbenannter_Verlauf_6"/><linearGradient id="Unbenannter_Verlauf_5-2" x1="-888.67" y1="52.34" x2="-887.99" y2="-3.37" gradientTransform="matrix(-0.99, 0.14, 0.14, 0.99, -713.52, 173.71)" xlink:href="#Unbenannter_Verlauf_5"/><linearGradient id="Unbenannter_Verlauf_4-4" x1="-791.72" y1="399.36" x2="-790.58" y2="306.31" gradientTransform="matrix(-0.97, -0.23, -0.23, 0.97, -499.17, -394.82)" xlink:href="#Unbenannter_Verlauf_4"/><linearGradient id="Unbenannter_Verlauf_6-9" x1="136.49" y1="1387.78" x2="136.11" y2="1303.19" gradientTransform="matrix(0.24, 0.97, 0.97, -0.24, -785.48, 248.06)" xlink:href="#Unbenannter_Verlauf_6"/><linearGradient id="Unbenannter_Verlauf_6-10" x1="140.21" y1="1379.99" x2="139.84" y2="1296.87" gradientTransform="matrix(0.24, 0.97, 0.97, -0.24, -785.48, 248.06)" xlink:href="#Unbenannter_Verlauf_6"/><linearGradient id="Unbenannter_Verlauf_6-11" x1="136.03" y1="1410.59" x2="135.64" y2="1321.61" gradientTransform="matrix(0.24, 0.97, 0.97, -0.24, -785.48, 248.06)" xlink:href="#Unbenannter_Verlauf_6"/><linearGradient id="Unbenannter_Verlauf_6-12" x1="136.88" y1="1418.4" x2="136.48" y2="1327.97" gradientTransform="matrix(0.24, 0.97, 0.97, -0.24, -785.48, 248.06)" xlink:href="#Unbenannter_Verlauf_6"/><linearGradient id="Unbenannter_Verlauf_5-3" x1="-632.13" y1="-111.67" x2="-631.59" y2="-156.48" gradientTransform="matrix(-0.99, -0.12, -0.12, 0.99, -448.5, 156.73)" xlink:href="#Unbenannter_Verlauf_5"/><linearGradient id="Unbenannter_Verlauf_4-5" x1="-489.25" y1="324.2" x2="-488.3" y2="245.74" gradientTransform="matrix(-0.88, -0.47, -0.47, 0.88, -94.74, -337.63)" xlink:href="#Unbenannter_Verlauf_4"/><linearGradient id="Unbenannter_Verlauf_6-13" x1="-64.34" y1="1084.96" x2="-64.66" y2="1013.65" gradientTransform="matrix(-0.02, 1, 1, 0.02, -537.51, 208.98)" xlink:href="#Unbenannter_Verlauf_6"/><linearGradient id="Unbenannter_Verlauf_6-14" x1="-61.21" y1="1078.39" x2="-61.52" y2="1008.31" gradientTransform="matrix(-0.02, 1, 1, 0.02, -537.51, 208.98)" xlink:href="#Unbenannter_Verlauf_6"/><linearGradient id="Unbenannter_Verlauf_6-15" x1="-64.73" y1="1104.2" x2="-65.06" y2="1029.18" gradientTransform="matrix(-0.02, 1, 1, 0.02, -537.51, 208.98)" xlink:href="#Unbenannter_Verlauf_6"/><linearGradient id="Unbenannter_Verlauf_6-16" x1="-64.01" y1="1110.78" x2="-64.35" y2="1034.54" gradientTransform="matrix(-0.02, 1, 1, 0.02, -537.51, 208.98)" xlink:href="#Unbenannter_Verlauf_6"/><linearGradient id="Unbenannter_Verlauf_5-4" x1="-338.12" y1="-210.27" x2="-337.66" y2="-248.05" gradientTransform="matrix(-0.93, -0.38, -0.38, 0.93, -187.84, 207.9)" xlink:href="#Unbenannter_Verlauf_5"/><linearGradient id="Unbenannter_Verlauf_4-6" x1="-175.56" y1="331.14" x2="-174.81" y2="269.11" gradientTransform="matrix(-0.73, -0.69, -0.69, 0.73, 282.67, -177.31)" xlink:href="#Unbenannter_Verlauf_4"/><linearGradient id="Unbenannter_Verlauf_6-17" x1="-196.88" y1="727.37" x2="-197.13" y2="670.98" gradientTransform="matrix(-0.28, 0.96, 0.96, 0.28, -287.45, 235.54)" xlink:href="#Unbenannter_Verlauf_6"/><linearGradient id="Unbenannter_Verlauf_6-18" x1="-194.4" y1="722.17" x2="-194.64" y2="666.76" gradientTransform="matrix(-0.28, 0.96, 0.96, 0.28, -287.45, 235.54)" xlink:href="#Unbenannter_Verlauf_6"/><linearGradient id="Unbenannter_Verlauf_6-19" x1="-197.18" y1="742.58" x2="-197.44" y2="683.26" gradientTransform="matrix(-0.28, 0.96, 0.96, 0.28, -287.45, 235.54)" xlink:href="#Unbenannter_Verlauf_6"/><linearGradient id="Unbenannter_Verlauf_6-20" x1="-196.62" y1="747.78" x2="-196.88" y2="687.5" gradientTransform="matrix(-0.28, 0.96, 0.96, 0.28, -287.45, 235.54)" xlink:href="#Unbenannter_Verlauf_6"/><linearGradient id="Unbenannter_Verlauf_5-5" x1="-25.54" y1="-228.77" x2="-25.17" y2="-258.64" gradientTransform="matrix(-0.8, -0.6, -0.6, 0.8, 50.19, 325.42)" xlink:href="#Unbenannter_Verlauf_5"/><linearGradient id="Unbenannter_Verlauf_4-7" x1="125.1" y1="414.76" x2="125.85" y2="352.73" gradientTransform="matrix(-0.53, -0.85, -0.85, 0.53, 603.92, 74.75)" xlink:href="#Unbenannter_Verlauf_4"/><linearGradient id="Unbenannter_Verlauf_6-21" x1="-260.1" y1="421.49" x2="-260.35" y2="365.11" gradientTransform="matrix(-0.52, 0.86, 0.86, 0.52, -53.53, 326.2)" xlink:href="#Unbenannter_Verlauf_6"/><linearGradient id="Unbenannter_Verlauf_6-22" x1="-257.62" y1="416.3" x2="-257.87" y2="360.89" gradientTransform="matrix(-0.52, 0.86, 0.86, 0.52, -53.53, 326.2)" xlink:href="#Unbenannter_Verlauf_6"/><linearGradient id="Unbenannter_Verlauf_6-23" x1="-260.4" y1="436.7" x2="-260.67" y2="377.39" gradientTransform="matrix(-0.52, 0.86, 0.86, 0.52, -53.53, 326.2)" xlink:href="#Unbenannter_Verlauf_6"/><linearGradient id="Unbenannter_Verlauf_6-24" x1="-259.84" y1="441.91" x2="-260.11" y2="381.63" gradientTransform="matrix(-0.52, 0.86, 0.86, 0.52, -53.53, 326.2)" xlink:href="#Unbenannter_Verlauf_6"/><linearGradient id="Unbenannter_Verlauf_5-6" x1="282.35" y1="-176.92" x2="282.72" y2="-206.79" gradientTransform="matrix(-0.61, -0.79, -0.79, 0.61, 250.25, 499.28)" xlink:href="#Unbenannter_Verlauf_5"/><linearGradient id="Unbenannter_Verlauf_4-8" x1="-933.61" y1="473.76" x2="-932.24" y2="361.41" gradientTransform="matrix(-1, -0.08, -0.08, 1, -715.92, -373.59)" xlink:href="#Unbenannter_Verlauf_4"/><linearGradient id="Unbenannter_Verlauf_6-25" x1="263.04" y1="1583.83" x2="262.58" y2="1479.25" gradientTransform="matrix(0.39, 0.92, 0.92, -0.39, -902.13, 305.43)" xlink:href="#Unbenannter_Verlauf_6"/><linearGradient id="Unbenannter_Verlauf_6-26" x1="267.78" y1="1581.65" x2="267.32" y2="1477.48" gradientTransform="matrix(0.39, 0.92, 0.92, -0.39, -902.13, 305.43)" xlink:href="#Unbenannter_Verlauf_6"/><linearGradient id="Unbenannter_Verlauf_6-27" x1="261.93" y1="1590.16" x2="261.46" y2="1484.36" gradientTransform="matrix(0.39, 0.92, 0.92, -0.39, -902.13, 305.43)" xlink:href="#Unbenannter_Verlauf_6"/><linearGradient id="Unbenannter_Verlauf_6-28" x1="262.7" y1="1592.33" x2="262.23" y2="1486.14" gradientTransform="matrix(0.39, 0.92, 0.92, -0.39, -902.13, 305.43)" xlink:href="#Unbenannter_Verlauf_6"/><linearGradient id="Unbenannter_Verlauf_5-7" x1="-766.52" y1="-32.52" x2="-765.86" y2="-86.77" gradientTransform="matrix(-1, 0.03, 0.03, 1, -582.04, 162.97)" xlink:href="#Unbenannter_Verlauf_5"/><linearGradient id="Unbenannter_Verlauf_4-9" x1="-646.97" y1="352.52" x2="-645.73" y2="250.81" gradientTransform="matrix(-0.94, -0.33, -0.33, 0.94, -310.01, -373.35)" xlink:href="#Unbenannter_Verlauf_4"/><linearGradient id="Unbenannter_Verlauf_6-29" x1="25.81" y1="1332.23" x2="25.39" y2="1237.56" gradientTransform="matrix(0.13, 0.99, 0.99, -0.13, -664.23, 235.44)" xlink:href="#Unbenannter_Verlauf_6"/><linearGradient id="Unbenannter_Verlauf_6-30" x1="30.1" y1="1330.26" x2="29.69" y2="1235.96" gradientTransform="matrix(0.13, 0.99, 0.99, -0.13, -664.23, 235.44)" xlink:href="#Unbenannter_Verlauf_6"/><linearGradient id="Unbenannter_Verlauf_6-31" x1="24.81" y1="1337.96" x2="24.38" y2="1242.19" gradientTransform="matrix(0.13, 0.99, 0.99, -0.13, -664.23, 235.44)" xlink:href="#Unbenannter_Verlauf_6"/><linearGradient id="Unbenannter_Verlauf_6-32" x1="25.5" y1="1339.93" x2="25.07" y2="1243.79" gradientTransform="matrix(0.13, 0.99, 0.99, -0.13, -664.23, 235.44)" xlink:href="#Unbenannter_Verlauf_6"/><linearGradient id="Unbenannter_Verlauf_5-8" x1="-493.97" y1="-177.47" x2="-493.37" y2="-226.6" gradientTransform="matrix(-0.97, -0.23, -0.23, 0.97, -319.37, 179.03)" xlink:href="#Unbenannter_Verlauf_5"/><linearGradient id="Unbenannter_Verlauf_4-10" x1="-337.36" y1="310.15" x2="-336.26" y2="219.7" gradientTransform="matrix(-0.82, -0.57, -0.57, 0.82, 82.92, -267.82)" xlink:href="#Unbenannter_Verlauf_4"/><linearGradient id="Unbenannter_Verlauf_6-33" x1="-149.24" y1="1022.98" x2="-149.61" y2="938.78" gradientTransform="matrix(-0.13, 0.99, 0.99, 0.13, -417.01, 227.43)" xlink:href="#Unbenannter_Verlauf_6"/><linearGradient id="Unbenannter_Verlauf_6-34" x1="-145.42" y1="1021.22" x2="-145.79" y2="937.35" gradientTransform="matrix(-0.13, 0.99, 0.99, 0.13, -417.01, 227.43)" xlink:href="#Unbenannter_Verlauf_6"/><linearGradient id="Unbenannter_Verlauf_6-35" x1="-150.13" y1="1028.08" x2="-150.51" y2="942.9" gradientTransform="matrix(-0.13, 0.99, 0.99, 0.13, -417.01, 227.43)" xlink:href="#Unbenannter_Verlauf_6"/><linearGradient id="Unbenannter_Verlauf_6-36" x1="-149.51" y1="1029.83" x2="-149.89" y2="944.33" gradientTransform="matrix(-0.13, 0.99, 0.99, 0.13, -417.01, 227.43)" xlink:href="#Unbenannter_Verlauf_6"/><linearGradient id="Unbenannter_Verlauf_5-9" x1="-190.5" y1="-247.16" x2="-189.97" y2="-290.84" gradientTransform="matrix(-0.88, -0.47, -0.47, 0.88, -69.7, 263.47)" xlink:href="#Unbenannter_Verlauf_5"/><linearGradient id="Unbenannter_Verlauf_4-11" x1="-26.7" y1="348.62" x2="-25.73" y2="269.17" gradientTransform="matrix(-0.65, -0.76, -0.76, 0.65, 434.64, -63.65)" xlink:href="#Unbenannter_Verlauf_4"/><linearGradient id="Unbenannter_Verlauf_6-37" x1="-253.44" y1="676.38" x2="-253.77" y2="602.42" gradientTransform="matrix(-0.38, 0.93, 0.93, 0.38, -176, 284.85)" xlink:href="#Unbenannter_Verlauf_6"/><linearGradient id="Unbenannter_Verlauf_6-38" x1="-250.09" y1="674.83" x2="-250.42" y2="601.16" gradientTransform="matrix(-0.38, 0.93, 0.93, 0.38, -176, 284.85)" xlink:href="#Unbenannter_Verlauf_6"/><linearGradient id="Unbenannter_Verlauf_6-39" x1="-254.23" y1="680.86" x2="-254.56" y2="606.04" gradientTransform="matrix(-0.38, 0.93, 0.93, 0.38, -176, 284.85)" xlink:href="#Unbenannter_Verlauf_6"/><linearGradient id="Unbenannter_Verlauf_6-40" x1="-253.69" y1="682.4" x2="-254.02" y2="607.29" gradientTransform="matrix(-0.38, 0.93, 0.93, 0.38, -176, 284.85)" xlink:href="#Unbenannter_Verlauf_6"/><linearGradient id="Unbenannter_Verlauf_5-10" x1="123.31" y1="-236.46" x2="123.78" y2="-274.82" gradientTransform="matrix(-0.73, -0.69, -0.69, 0.73, 149.71, 410.21)" xlink:href="#Unbenannter_Verlauf_5"/><linearGradient id="Unbenannter_Verlauf_4-12" x1="265.56" y1="467.94" x2="266.35" y2="402.87" gradientTransform="matrix(-0.43, -0.9, -0.9, 0.43, 722.71, 223.52)" xlink:href="#Unbenannter_Verlauf_4"/><linearGradient id="Unbenannter_Verlauf_6-41" x1="-278.33" y1="294.09" x2="-278.6" y2="233.51" gradientTransform="matrix(-0.61, 0.8, 0.8, 0.61, 41.26, 402.61)" xlink:href="#Unbenannter_Verlauf_6"/><linearGradient id="Unbenannter_Verlauf_6-42" x1="-275.58" y1="292.82" x2="-275.85" y2="232.49" gradientTransform="matrix(-0.61, 0.8, 0.8, 0.61, 41.26, 402.61)" xlink:href="#Unbenannter_Verlauf_6"/><linearGradient id="Unbenannter_Verlauf_6-43" x1="-278.97" y1="297.75" x2="-279.24" y2="236.47" gradientTransform="matrix(-0.61, 0.8, 0.8, 0.61, 41.26, 402.61)" xlink:href="#Unbenannter_Verlauf_6"/><linearGradient id="Unbenannter_Verlauf_6-44" x1="-278.53" y1="299.01" x2="-278.8" y2="237.5" gradientTransform="matrix(-0.61, 0.8, 0.8, 0.61, 41.26, 402.61)" xlink:href="#Unbenannter_Verlauf_6"/><linearGradient id="Unbenannter_Verlauf_5-11" x1="428.19" y1="-142.12" x2="428.57" y2="-173.55" gradientTransform="matrix(-0.53, -0.85, -0.85, 0.53, 324.44, 608.24)" xlink:href="#Unbenannter_Verlauf_5"/><linearGradient id="Unbenannter_Verlauf_4-13" x1="838.33" y1="861.2" x2="839.73" y2="746.55" gradientTransform="matrix(0.94, -0.35, 0.35, 0.94, -916.61, -347.12)" xlink:href="#Unbenannter_Verlauf_4"/><linearGradient id="Unbenannter_Verlauf_6-45" x1="-204" y1="-159.29" x2="-204.47" y2="-266.06" gradientTransform="translate(-554.29 256.6) rotate(97.01)" xlink:href="#Unbenannter_Verlauf_6"/><linearGradient id="Unbenannter_Verlauf_6-46" x1="-199.4" y1="-168.09" x2="-199.87" y2="-273.21" gradientTransform="translate(-554.29 256.6) rotate(97.01)" xlink:href="#Unbenannter_Verlauf_6"/><linearGradient id="Unbenannter_Verlauf_6-47" x1="-204.63" y1="-133.53" x2="-205.13" y2="-245.26" gradientTransform="translate(-554.29 256.6) rotate(97.01)" xlink:href="#Unbenannter_Verlauf_6"/><linearGradient id="Unbenannter_Verlauf_6-48" x1="-203.63" y1="-124.72" x2="-204.13" y2="-238.08" gradientTransform="translate(-554.29 256.6) rotate(97.01)" xlink:href="#Unbenannter_Verlauf_6"/><linearGradient id="Unbenannter_Verlauf_5-12" x1="1035.38" y1="158.23" x2="1036.05" y2="103.09" gradientTransform="translate(-899.28 205.93) rotate(-13.96)" xlink:href="#Unbenannter_Verlauf_5"/><linearGradient id="Unbenannter_Verlauf_4-14" x1="973.79" y1="1228.93" x2="974.93" y2="1135.87" gradientTransform="translate(-1352.14 -215.81) rotate(-37.03)" xlink:href="#Unbenannter_Verlauf_4"/><linearGradient id="Unbenannter_Verlauf_6-49" x1="68.04" y1="-561.4" x2="67.67" y2="-646" gradientTransform="matrix(0.17, 0.99, -0.99, 0.17, -830.97, 256.28)" xlink:href="#Unbenannter_Verlauf_6"/><linearGradient id="Unbenannter_Verlauf_6-50" x1="71.77" y1="-569.2" x2="71.4" y2="-652.32" gradientTransform="matrix(0.17, 0.99, -0.99, 0.17, -830.97, 256.28)" xlink:href="#Unbenannter_Verlauf_6"/><linearGradient id="Unbenannter_Verlauf_6-51" x1="67.59" y1="-538.58" x2="67.19" y2="-627.57" gradientTransform="matrix(0.17, 0.99, -0.99, 0.17, -830.97, 256.28)" xlink:href="#Unbenannter_Verlauf_6"/><linearGradient id="Unbenannter_Verlauf_6-52" x1="68.44" y1="-530.78" x2="68.04" y2="-621.21" gradientTransform="matrix(0.17, 0.99, -0.99, 0.17, -830.97, 256.28)" xlink:href="#Unbenannter_Verlauf_6"/><linearGradient id="Unbenannter_Verlauf_5-13" x1="1212.43" y1="522.99" x2="1212.98" y2="478.18" gradientTransform="translate(-1176.66 307.72) rotate(-30.8)" xlink:href="#Unbenannter_Verlauf_5"/><linearGradient id="Unbenannter_Verlauf_4-15" x1="1001.46" y1="1582.53" x2="1002.42" y2="1504.08" gradientTransform="translate(-1699.37 -0.51) rotate(-52.03)" xlink:href="#Unbenannter_Verlauf_4"/><linearGradient id="Unbenannter_Verlauf_6-53" x1="373.42" y1="-816.28" x2="373.11" y2="-887.6" gradientTransform="translate(-1074.13 321.25) rotate(65.17)" xlink:href="#Unbenannter_Verlauf_6"/><linearGradient id="Unbenannter_Verlauf_6-54" x1="376.56" y1="-822.85" x2="376.25" y2="-892.93" gradientTransform="translate(-1074.13 321.25) rotate(65.17)" xlink:href="#Unbenannter_Verlauf_6"/><linearGradient id="Unbenannter_Verlauf_6-55" x1="373.04" y1="-797.04" x2="372.71" y2="-872.06" gradientTransform="translate(-1074.13 321.25) rotate(65.17)" xlink:href="#Unbenannter_Verlauf_6"/><linearGradient id="Unbenannter_Verlauf_6-56" x1="373.76" y1="-790.46" x2="373.42" y2="-866.7" gradientTransform="translate(-1074.13 321.25) rotate(65.17)" xlink:href="#Unbenannter_Verlauf_6"/><linearGradient id="Unbenannter_Verlauf_5-14" x1="1280.07" y1="879.63" x2="1280.53" y2="841.85" gradientTransform="matrix(0.7, -0.72, 0.72, 0.7, -1394.66, 460.41)" xlink:href="#Unbenannter_Verlauf_5"/><linearGradient id="Unbenannter_Verlauf_4-16" x1="938.36" y1="1931.69" x2="939.12" y2="1869.65" gradientTransform="translate(-1979.35 298.14) rotate(-67.03)" xlink:href="#Unbenannter_Verlauf_4"/><linearGradient id="Unbenannter_Verlauf_6-57" x1="717.84" y1="-994.47" x2="717.59" y2="-1050.86" gradientTransform="translate(-1291.01 445.66) rotate(50.17)" xlink:href="#Unbenannter_Verlauf_6"/><linearGradient id="Unbenannter_Verlauf_6-58" x1="720.32" y1="-999.67" x2="720.07" y2="-1055.07" gradientTransform="translate(-1291.01 445.66) rotate(50.17)" xlink:href="#Unbenannter_Verlauf_6"/><linearGradient id="Unbenannter_Verlauf_6-59" x1="717.53" y1="-979.27" x2="717.27" y2="-1038.58" gradientTransform="translate(-1291.01 445.66) rotate(50.17)" xlink:href="#Unbenannter_Verlauf_6"/><linearGradient id="Unbenannter_Verlauf_6-60" x1="718.1" y1="-974.06" x2="717.83" y2="-1034.34" gradientTransform="translate(-1291.01 445.66) rotate(50.17)" xlink:href="#Unbenannter_Verlauf_6"/><linearGradient id="Unbenannter_Verlauf_5-15" x1="1255.45" y1="1242.99" x2="1255.82" y2="1213.12" gradientTransform="translate(-1565.33 663.8) rotate(-60.8)" xlink:href="#Unbenannter_Verlauf_5"/><linearGradient id="Unbenannter_Verlauf_4-17" x1="786.08" y1="2248.77" x2="786.83" y2="2186.75" gradientTransform="translate(-2171.6 657.65) rotate(-82.03)" xlink:href="#Unbenannter_Verlauf_4"/><linearGradient id="Unbenannter_Verlauf_6-61" x1="1069.83" y1="-1005.52" x2="1069.58" y2="-1061.91" gradientTransform="translate(-1469.58 622.92) rotate(35.17)" xlink:href="#Unbenannter_Verlauf_6"/><linearGradient id="Unbenannter_Verlauf_6-62" x1="1072.31" y1="-1010.72" x2="1072.06" y2="-1066.13" gradientTransform="translate(-1469.58 622.92) rotate(35.17)" xlink:href="#Unbenannter_Verlauf_6"/><linearGradient id="Unbenannter_Verlauf_6-63" x1="1069.53" y1="-990.31" x2="1069.26" y2="-1049.63" gradientTransform="translate(-1469.58 622.92) rotate(35.17)" xlink:href="#Unbenannter_Verlauf_6"/><linearGradient id="Unbenannter_Verlauf_6-64" x1="1070.09" y1="-985.11" x2="1069.82" y2="-1045.39" gradientTransform="translate(-1469.58 622.92) rotate(35.17)" xlink:href="#Unbenannter_Verlauf_6"/><linearGradient id="Unbenannter_Verlauf_5-16" x1="1138.7" y1="1574.09" x2="1139.07" y2="1544.22" gradientTransform="translate(-1676.5 904.03) rotate(-75.8)" xlink:href="#Unbenannter_Verlauf_5"/><linearGradient id="Unbenannter_Verlauf_4-18" x1="937.25" y1="1024.1" x2="938.62" y2="911.75" gradientTransform="translate(-1144.68 -284.19) rotate(-28.25)" xlink:href="#Unbenannter_Verlauf_4"/><linearGradient id="Unbenannter_Verlauf_6-65" x1="-102.62" y1="-332.43" x2="-103.09" y2="-437.01" gradientTransform="translate(-701.41 262.1) rotate(88.96)" xlink:href="#Unbenannter_Verlauf_6"/><linearGradient id="Unbenannter_Verlauf_6-66" x1="-97.88" y1="-334.61" x2="-98.34" y2="-438.78" gradientTransform="translate(-701.41 262.1) rotate(88.96)" xlink:href="#Unbenannter_Verlauf_6"/><linearGradient id="Unbenannter_Verlauf_6-67" x1="-103.73" y1="-326.09" x2="-104.2" y2="-431.89" gradientTransform="translate(-701.41 262.1) rotate(88.96)" xlink:href="#Unbenannter_Verlauf_6"/><linearGradient id="Unbenannter_Verlauf_6-68" x1="-102.97" y1="-323.92" x2="-103.44" y2="-430.12" gradientTransform="translate(-701.41 262.1) rotate(88.96)" xlink:href="#Unbenannter_Verlauf_6"/><linearGradient id="Unbenannter_Verlauf_5-17" x1="1152.41" y1="311.39" x2="1153.07" y2="257.14" gradientTransform="matrix(0.93, -0.37, 0.37, 0.93, -1050.49, 260.7)" xlink:href="#Unbenannter_Verlauf_5"/><linearGradient id="Unbenannter_Verlauf_4-19" x1="1017.86" y1="1368.3" x2="1019.1" y2="1266.59" gradientTransform="matrix(0.73, -0.69, 0.69, 0.73, -1516.25, -120.26)" xlink:href="#Unbenannter_Verlauf_4"/><linearGradient id="Unbenannter_Verlauf_6-69" x1="169.18" y1="-612.18" x2="168.76" y2="-706.86" gradientTransform="translate(-946.45 293.07) rotate(73.95)" xlink:href="#Unbenannter_Verlauf_6"/><linearGradient id="Unbenannter_Verlauf_6-70" x1="173.48" y1="-614.16" x2="173.06" y2="-708.46" gradientTransform="translate(-946.45 293.07) rotate(73.95)" xlink:href="#Unbenannter_Verlauf_6"/><linearGradient id="Unbenannter_Verlauf_6-71" x1="168.18" y1="-606.46" x2="167.76" y2="-702.24" gradientTransform="translate(-946.45 293.07) rotate(73.95)" xlink:href="#Unbenannter_Verlauf_6"/><linearGradient id="Unbenannter_Verlauf_6-72" x1="168.87" y1="-604.49" x2="168.45" y2="-700.63" gradientTransform="translate(-946.45 293.07) rotate(73.95)" xlink:href="#Unbenannter_Verlauf_6"/><linearGradient id="Unbenannter_Verlauf_5-18" x1="1270.71" y1="650.82" x2="1271.31" y2="601.7" gradientTransform="translate(-1284.26 381.82) rotate(-37.02)" xlink:href="#Unbenannter_Verlauf_5"/><linearGradient id="Unbenannter_Verlauf_4-20" x1="1007.1" y1="1722.51" x2="1008.2" y2="1632.06" gradientTransform="matrix(0.53, -0.85, 0.85, 0.53, -1833.25, 133.92)" xlink:href="#Unbenannter_Verlauf_4"/><linearGradient id="Unbenannter_Verlauf_6-73" x1="491.36" y1="-819.37" x2="490.99" y2="-903.56" gradientTransform="matrix(0.52, 0.86, -0.86, 0.52, -1176.46, 386.85)" xlink:href="#Unbenannter_Verlauf_6"/><linearGradient id="Unbenannter_Verlauf_6-74" x1="495.18" y1="-821.12" x2="494.81" y2="-904.99" gradientTransform="matrix(0.52, 0.86, -0.86, 0.52, -1176.46, 386.85)" xlink:href="#Unbenannter_Verlauf_6"/><linearGradient id="Unbenannter_Verlauf_6-75" x1="490.47" y1="-814.27" x2="490.09" y2="-899.45" gradientTransform="matrix(0.52, 0.86, -0.86, 0.52, -1176.46, 386.85)" xlink:href="#Unbenannter_Verlauf_6"/><linearGradient id="Unbenannter_Verlauf_6-76" x1="491.09" y1="-812.52" x2="490.71" y2="-898.02" gradientTransform="matrix(0.52, 0.86, -0.86, 0.52, -1176.46, 386.85)" xlink:href="#Unbenannter_Verlauf_6"/><linearGradient id="Unbenannter_Verlauf_5-19" x1="1300.21" y1="1010.88" x2="1300.74" y2="967.2" gradientTransform="matrix(0.62, -0.79, 0.79, 0.62, -1479.97, 559.35)" xlink:href="#Unbenannter_Verlauf_5"/><linearGradient id="Unbenannter_Verlauf_4-21" x1="906.44" y1="2061.31" x2="907.41" y2="1981.86" gradientTransform="translate(-2073.39 462.34) rotate(-73.25)" xlink:href="#Unbenannter_Verlauf_4"/><linearGradient id="Unbenannter_Verlauf_6-77" x1="841.98" y1="-936.69" x2="841.65" y2="-1010.64" gradientTransform="matrix(0.72, 0.69, -0.69, 0.72, -1373.27, 536.16)" xlink:href="#Unbenannter_Verlauf_6"/><linearGradient id="Unbenannter_Verlauf_6-78" x1="845.34" y1="-938.23" x2="845.01" y2="-1011.89" gradientTransform="matrix(0.72, 0.69, -0.69, 0.72, -1373.27, 536.16)" xlink:href="#Unbenannter_Verlauf_6"/><linearGradient id="Unbenannter_Verlauf_6-79" x1="841.2" y1="-932.22" x2="840.87" y2="-1007.03" gradientTransform="matrix(0.72, 0.69, -0.69, 0.72, -1373.27, 536.16)" xlink:href="#Unbenannter_Verlauf_6"/><linearGradient id="Unbenannter_Verlauf_6-80" x1="841.74" y1="-930.68" x2="841.41" y2="-1005.77" gradientTransform="matrix(0.72, 0.69, -0.69, 0.72, -1373.27, 536.16)" xlink:href="#Unbenannter_Verlauf_6"/><linearGradient id="Unbenannter_Verlauf_5-20" x1="1237.9" y1="1364.44" x2="1238.36" y2="1326.07" gradientTransform="translate(-1621.73 782.2) rotate(-67.01)" xlink:href="#Unbenannter_Verlauf_5"/><linearGradient id="Unbenannter_Verlauf_4-22" x1="722.04" y1="2363.6" x2="722.83" y2="2298.52" gradientTransform="matrix(0.03, -1, 1, 0.03, -2221.27, 841.63)" xlink:href="#Unbenannter_Verlauf_4"/><linearGradient id="Unbenannter_Verlauf_6-81" x1="1198.5" y1="-978.49" x2="1198.23" y2="-1039.06" gradientTransform="translate(-1525.06 731.12) rotate(28.95)" xlink:href="#Unbenannter_Verlauf_6"/><linearGradient id="Unbenannter_Verlauf_6-82" x1="1201.25" y1="-979.76" x2="1200.98" y2="-1040.09" gradientTransform="translate(-1525.06 731.12) rotate(28.95)" xlink:href="#Unbenannter_Verlauf_6"/><linearGradient id="Unbenannter_Verlauf_6-83" x1="1197.86" y1="-974.83" x2="1197.59" y2="-1036.11" gradientTransform="translate(-1525.06 731.12) rotate(28.95)" xlink:href="#Unbenannter_Verlauf_6"/><linearGradient id="Unbenannter_Verlauf_6-84" x1="1198.3" y1="-973.57" x2="1198.03" y2="-1035.08" gradientTransform="translate(-1525.06 731.12) rotate(28.95)" xlink:href="#Unbenannter_Verlauf_6"/><linearGradient id="Unbenannter_Verlauf_5-21" x1="1087.8" y1="1692.58" x2="1088.18" y2="1661.15" gradientTransform="translate(-1701.64 1033.24) rotate(-82.02)" xlink:href="#Unbenannter_Verlauf_5"/></defs><g class="cls-1"><g id="OBJECTS"><path class="cls-2" d="M181.09,187.52c-3.16,13.23,18.33,83.18,18.33,83.18l-9.64,2.18s-5.44-34.61-9.45-51.32A115.66,115.66,0,0,0,168.58,192s-.64-8.69,3.76-9.68S181.09,187.52,181.09,187.52Z"/><path class="cls-3" d="M175.69,192C171,83.81,141.77,35.31,141.77,35.31S139.18,75.76,154.14,122C165.91,158.34,175.69,192,175.69,192Z"/><path class="cls-4" d="M155.69,79.81s9.05,49.16,17.95,98.45c0,0-2.12-7.68-7.53-32.89Z"/><path class="cls-5" d="M162.1,98.4s9.06,36,10.88,70.07c0,0-1.31-12.13-4.12-30.95Z"/><path class="cls-6" d="M148.56,80.85s12.88,50.34,24.79,99c0,0-1.93-9.26-7.24-34.49Z"/><path class="cls-7" d="M149.6,95.92s8.83,41.45,19.76,73.29c0,0-2.88-13.34-8.52-32.31Z"/><path class="cls-8" d="M142.74,40s-1.59,25,5,58.05c-7.69-35.4-5.94-62.72-5.94-62.72s14,23.29,24.19,73.57C155.88,61.82,142.74,40,142.74,40Z"/><path class="cls-9" d="M175.66,190.79c7.52-100.7-6-150.74-6-150.74a359,359,0,0,0-.68,82.22C172.82,158,175.66,190.79,175.66,190.79Z"/><path class="cls-10" d="M174.05,83.63s.88,47,1.66,94.11c0,0-.57-7.48-1.51-31.72Z"/><path class="cls-11" d="M176.25,102s2.16,34.88,0,66.63c0,0,.36-11.43.42-29.3Z"/><path class="cls-12" d="M169.5,83.31s3.16,48.78,5.88,95.85c0,0-.31-8.9-1.18-33.14Z"/><path class="cls-13" d="M168.69,97.4s1.49,39.84,5.23,71.21c0,0-.5-12.84-2.18-31.36Z"/><path class="cls-14" d="M169.83,44.54S166.42,67.28,167.31,99c-1.37-34,2.37-58.95,2.37-58.95s6.48,24,8,72.27C175.91,67.08,169.83,44.54,169.83,44.54Z"/><path class="cls-15" d="M175.61,192.33C202.42,115.66,202.35,74,202.35,74a288.65,288.65,0,0,0-17.64,63.75C180.25,166.22,175.61,192.33,175.61,192.33Z"/><path class="cls-16" d="M196.67,108.74s-9.1,36.7-18.3,73.46c0,0,1.11-5.93,5.43-25Z"/><path class="cls-17" d="M194.57,123.42S189,151,180.7,175.19c0,0,2.66-8.8,6.43-22.67Z"/><path class="cls-18" d="M193.21,107.54s-7.7,38.55-15.39,75.7c0,0,1.61-7,6-26Z"/><path class="cls-19" d="M189.65,118.32s-7.14,31.27-10.77,56.42c0,0,2.28-10.08,4.83-24.83Z"/><path class="cls-20" d="M201.53,77.48a275.59,275.59,0,0,0-13.3,41.79A278.4,278.4,0,0,1,202.35,74s0,20-8.86,57.82C201.57,96.26,201.53,77.48,201.53,77.48Z"/><path class="cls-21" d="M175.61,192.33c38.57-56.59,47.6-90.56,47.6-90.56a243.79,243.79,0,0,0-28.27,48.06C185.08,172.08,175.61,192.33,175.61,192.33Z"/><path class="cls-22" d="M211,128.85s-15.43,27.91-30.94,55.84c0,0,2.2-4.59,9.87-19.14Z"/><path class="cls-23" d="M206.08,140.35a404.27,404.27,0,0,1-22.59,39.14s4.09-6.6,10.19-17.07Z"/><path class="cls-24" d="M208.44,127.12s-14.68,29.72-29.05,58.29c0,0,2.84-5.33,10.55-19.86Z"/><path class="cls-25" d="M203.19,135.12S190.56,159,182.11,178.71c0,0,4.06-7.7,9.36-19.15Z"/><path class="cls-26" d="M221.78,104.46a232.34,232.34,0,0,0-19.95,31.13,235.64,235.64,0,0,1,21.38-33.82s-4.34,16.31-19.83,45.15C217.71,119.76,221.78,104.46,221.78,104.46Z"/><path class="cls-27" d="M175.61,192.33c41-35.32,54.89-59.42,54.89-59.42a192.08,192.08,0,0,0-31.43,30.92C187,178.8,175.61,192.33,175.61,192.33Z"/><path class="cls-28" d="M215.63,151.09s-17.49,18.16-35,36.31c0,0,2.62-3.05,11.45-12.59Z"/><path class="cls-29" d="M209.52,158.87a318.32,318.32,0,0,1-25.26,25.26s4.47-4.19,11.27-10.94Z"/><path class="cls-30" d="M214,149.25s-17.3,19.69-34.11,38.57l12.11-13Z"/><path class="cls-31" d="M208.38,154.28s-14.54,15.67-25,29c0,0,4.68-5,11.07-12.72Z"/><path class="cls-32" d="M228.85,134.67a183.64,183.64,0,0,0-21.6,19.69,186,186,0,0,1,23.25-21.45s-6.66,11.57-24.39,30.42C222.61,145.52,228.85,134.67,228.85,134.67Z"/><path class="cls-33" d="M175.61,192.33c48.78-23.5,68.4-43.19,68.4-43.19a192.91,192.91,0,0,0-38.37,21.73C190.1,182.21,175.61,192.33,175.61,192.33Z"/><path class="cls-34" d="M224.94,162.86s-21.59,13-43.25,26c0,0,3.32-2.27,14.32-9.21Z"/><path class="cls-35" d="M217,168.79a321.62,321.62,0,0,1-30.94,17.86s5.4-2.9,13.72-7.66Z"/><path class="cls-36" d="M223.87,160.66s-21.8,14.54-42.93,28.42L196,179.65Z"/><path class="cls-37" d="M217.11,164.06s-18.1,11.37-31.66,21.52c0,0,5.82-3.68,14-9.42Z"/><path class="cls-38" d="M242,150.42a182.83,182.83,0,0,0-26,13.43,185,185,0,0,1,28-14.71s-9.42,9.45-31.43,23.07C233.13,159.28,242,150.42,242,150.42Z"/><path class="cls-39" d="M175.61,192.33C198.7,96.2,186.05,46.2,186.05,46.2S173.72,81,174.85,125.4C175.74,160.3,175.61,192.33,175.61,192.33Z"/><path class="cls-40" d="M186.73,88.79s-4.62,45.44-9.41,91c0,0,.13-7.28,1.84-30.78Z"/><path class="cls-41" d="M187.52,106.74s-1.32,33.91-8.31,64.25c0,0,1.93-11,4.25-28.2Z"/><path class="cls-42" d="M180.41,87.89s-1.67,47.45-3.74,93.19c0,0,.68-8.62,2.49-32.11Z"/><path class="cls-43" d="M177.52,101.38S174.64,140,176,170.72c0,0,.9-12.44.86-30.53Z"/><path class="cls-44" d="M185.71,50.55S178.1,72,175.38,102.74c2.34-33,10.67-56.54,10.67-56.54s6.07,24,2.12,70.72C191.4,73.06,185.71,50.55,185.71,50.55Z"/><path class="cls-45" d="M175.61,192.33C218.34,113.67,219,67,219,67s-19,27.57-28.36,66.64C183.23,164.35,175.61,192.33,175.61,192.33Z"/><path class="cls-46" d="M209.6,104.39S194.91,143,180.05,181.73c0,0,1.82-6.34,8.83-26.49Z"/><path class="cls-47" d="M206.08,120.26s-9.1,29.36-22.32,54.25c0,0,4.26-9.15,10.33-23.67Z"/><path class="cls-48" d="M204.28,102.11s-12.57,41.11-25.1,80.63c0,0,2.61-7.38,9.7-27.5Z"/><path class="cls-49" d="M198.6,113.23S187,146.33,181,173.51c0,0,3.7-10.67,7.91-26.5Z"/><path class="cls-50" d="M217.66,70.7s-11.68,17-21.26,43.23C206.19,85.6,219,67,219,67s-.32,22.42-14.72,62.34C217.37,91.72,217.66,70.7,217.66,70.7Z"/><path class="cls-51" d="M175.61,192.33c54.8-57.73,66.11-97.69,66.11-97.69A196.3,196.3,0,0,0,202,145.36C188.6,170.05,175.61,192.33,175.61,192.33Z"/><path class="cls-52" d="M225.05,124.61s-21.52,29.82-43.18,59.64c0,0,3-5,13.67-20.72Z"/><path class="cls-53" d="M218.37,137.44s-14.57,23.12-31.65,41.46c0,0,5.76-6.88,14.31-18Z"/><path class="cls-54" d="M221,121.44s-20.26,32.41-40.12,63.47l14.66-21.38Z"/><path class="cls-55" d="M213.56,129.68s-17.56,25.76-29,47.72c0,0,5.63-8.32,12.89-20.94Z"/><path class="cls-56" d="M239.73,97.53s-13.95,11.92-28.21,32.24c14.92-22.08,30.2-35.13,30.2-35.13s-5.43,19.18-27,50.17C234.64,115.53,239.73,97.53,239.73,97.53Z"/><path class="cls-57" d="M175.61,192.33c59.62-36.52,78.3-67.85,78.3-67.85a172.35,172.35,0,0,0-45.21,34C191.7,176.38,175.61,192.33,175.61,192.33Z"/><path class="cls-58" d="M233,146.12s-25,20.41-50.19,40.78c0,0,3.7-3.58,16.31-14.48Z"/><path class="cls-59" d="M224.37,155.48s-17.62,16.3-36.28,28c0,0,6.45-4.53,16.22-12Z"/><path class="cls-60" d="M230.24,142.5s-24.56,22.9-48.47,44.74l17.3-14.82Z"/><path class="cls-61" d="M222.05,147.8s-20.75,17.87-35.46,33.89c0,0,6.67-5.77,15.69-14.83Z"/><path class="cls-62" d="M251.56,126.48a165.24,165.24,0,0,0-31.26,20.94,167.11,167.11,0,0,1,33.61-22.94s-9,15-34.31,36.42C243.15,140.59,251.56,126.48,251.56,126.48Z"/><path class="cls-63" d="M175.14,190.25c54.91-16.26,76.33-37.09,76.33-37.09a141,141,0,0,0-43,17.32C191.25,181,175.14,190.25,175.14,190.25Z"/><path class="cls-64" d="M230.3,165.84S206.17,176.68,182,187.46c0,0,3.69-2.05,16-8Z"/><path class="cls-65" d="M221.53,171.43s-17.4,9.16-34.64,14.44c0,0,6.07-2.21,15.38-6Z"/><path class="cls-66" d="M228.92,162.41s-24.28,12.9-47.83,25.11l16.83-8.05Z"/><path class="cls-67" d="M221.32,164.86s-20.2,9.74-35.24,19.3c0,0,6.5-3.16,15.56-8.41Z"/><path class="cls-68" d="M249.19,154.25A135.22,135.22,0,0,0,220,164.18a137.32,137.32,0,0,1,31.45-11s-10.29,10-34.86,21.55C239.54,163.63,249.19,154.25,249.19,154.25Z"/><path class="cls-69" d="M175.79,191.09C129.73,101.83,124,50.83,124,50.83a332.14,332.14,0,0,1,32.17,75C166,159.94,175.79,191.09,175.79,191.09Z"/><path class="cls-70" d="M136.34,92.4s17.13,43.36,34.4,86.77c0,0-2.29-7.07-10.65-29.61Z"/><path class="cls-71" d="M141.18,110s11.2,32.76,25.51,61c0,0-4.73-10.32-11.64-26.65Z"/><path class="cls-72" d="M140.74,90.35s15.55,45.86,30.87,90l-11.52-30.78Z"/><path class="cls-73" d="M147,102.94s13.78,37,22.07,67.18c0,0-4.41-11.94-9.84-29.54Z"/><path class="cls-74" d="M125.57,55s12.1,19.49,23.37,48.87c-11.69-31.69-24.94-53-24.94-53s2.76,24.49,19.77,69.21C128.15,78,125.57,55,125.57,55Z"/><path class="cls-75" d="M175.83,192.28c-55.43-59.37-72.16-97.56-72.16-97.56A289,289,0,0,1,145.5,146C161.07,170.25,175.83,192.28,175.83,192.28Z"/><path class="cls-76" d="M122.87,124.26s23.12,29.93,46.35,59.86c0,0-3.4-5-15-20.65Z"/><path class="cls-77" d="M130.72,136.85s16.21,23,33.55,41.8c0,0-6-7-15-18.17Z"/><path class="cls-78" d="M125.56,121.76s22.59,32.19,44.58,63.09L154.2,163.47Z"/><path class="cls-79" d="M133.17,130.2s19.12,25.74,32.58,47.29c0,0-6.15-8.3-14.43-20.77Z"/><path class="cls-80" d="M105.84,97.61a274.94,274.94,0,0,1,29,32.89,278.88,278.88,0,0,0-31.17-35.78s8,18.33,31.4,49.34C113.37,114.81,105.84,97.61,105.84,97.61Z"/><path class="cls-81" d="M175.83,192.28c-58.1-36.26-80.05-63.71-80.05-63.71A243.5,243.5,0,0,1,141,161.17C159,177.56,175.83,192.28,175.83,192.28Z"/><path class="cls-82" d="M117.86,148.44s25.36,19.33,50.8,38.64c0,0-3.85-3.31-16.74-13.54Z"/><path class="cls-83" d="M127,157a405.45,405.45,0,0,0,36.44,26.72s-6.4-4.39-16.2-11.52Z"/><path class="cls-84" d="M119.51,145.82s25.41,21.29,50.07,41.65l-17.66-13.93Z"/><path class="cls-85" d="M127.54,151s21.19,16.79,36.85,31.41c0,0-6.82-5.42-16.28-13.77Z"/><path class="cls-86" d="M98.17,130.46A232.16,232.16,0,0,1,129,150.91a236.15,236.15,0,0,0-33.19-22.34s10.54,13.18,36.33,33.34C108.06,142.82,98.17,130.46,98.17,130.46Z"/><path class="cls-87" d="M175.83,192.28C124,176.48,101.66,160,101.66,160a192.56,192.56,0,0,1,41.22,15.64C160,184.49,175.83,192.28,175.83,192.28Z"/><path class="cls-88" d="M122.59,170.66s23.32,9.58,46.7,19.12c0,0-3.62-1.75-15.55-6.92Z"/><path class="cls-89" d="M131.31,175.32a319.81,319.81,0,0,0,33.3,12.94s-5.78-2-14.73-5.48Z"/><path class="cls-90" d="M123.31,168.33s23.76,11,46.76,21.55l-16.33-7Z"/><path class="cls-91" d="M130.51,170.66s19.62,8.49,34.57,16.45c0,0-6.32-2.75-15.25-7.19Z"/><path class="cls-92" d="M103.87,161a183.09,183.09,0,0,1,27.71,9.32A185.43,185.43,0,0,0,101.66,160s10.74,7.91,34.57,18C114,168.38,103.87,161,103.87,161Z"/><path class="cls-93" d="M175.83,192.28c-54.12-1.86-80-12-80-12a192.38,192.38,0,0,1,43.86,4.43C158.49,188.86,175.83,192.28,175.83,192.28Z"/><path class="cls-94" d="M118.8,185.18s25,3.21,50.07,6.37c0,0-4-.74-16.82-2.65Z"/><path class="cls-95" d="M128.44,187.42A321.54,321.54,0,0,0,164,191.3s-6.11-.47-15.64-1.48Z"/><path class="cls-96" d="M118.9,182.74s25.81,4.52,50.74,8.72l-17.59-2.56Z"/><path class="cls-97" d="M126.46,183.13s21.15,3.11,37.65,6.93c0,0-6.82-1-16.59-3Z"/><path class="cls-98" d="M98.21,180.65a183.6,183.6,0,0,1,29.18,1.83,185.76,185.76,0,0,0-31.56-2.17s12.43,4.85,38.06,8.45C109.87,185.2,98.21,180.65,98.21,180.65Z"/><path class="cls-99" d="M175.83,192.28C116,113.6,107.4,62.74,107.4,62.74s25.33,26.91,42.16,68C162.8,163,175.83,192.28,175.83,192.28Z"/><path class="cls-100" d="M123.93,102s22.55,39.72,45.27,79.46c0,0-3-6.62-14.09-27.43Z"/><path class="cls-101" d="M130.44,118.74s14.88,30.51,33.49,55.46c0,0-6.18-9.27-15.25-24.1Z"/><path class="cls-102" d="M129.36,98.63s20.64,42.75,41,83.78c0,0-4.09-7.61-15.21-28.38Z"/><path class="cls-103" d="M137.44,109.81s18.19,34.17,29.37,62.83c0,0-5.83-11-13.08-27.6Z"/><path class="cls-104" d="M109.47,66.58s15.62,16.6,30.48,43.61C124.51,80.92,107.4,62.74,107.4,62.74s4.12,24.42,26.55,65.58C113.33,89.48,109.47,66.58,109.47,66.58Z"/><path class="cls-105" d="M175.83,192.28C105,137.5,85.63,95,85.63,95s28.45,17.6,52.8,49.56C157.58,169.74,175.83,192.28,175.83,192.28Z"/><path class="cls-106" d="M109.29,125.48s29,29.46,58.2,58.89c0,0-4.22-5.07-18.74-20.69Z"/><path class="cls-107" d="M118.9,138.6s20.16,23.2,42.29,40.65c0,0-7.58-6.65-19-17.5Z"/><path class="cls-108" d="M113.24,121.26s28.07,32.56,55.46,63.68c0,0-5.36-5.7-19.95-21.26Z"/><path class="cls-109" d="M122.92,129.15s23.93,25.62,40.42,48.06c0,0-7.69-8.27-17.91-21.06Z"/><path class="cls-110" d="M88.34,97.9s17.54,10.86,36.87,31C104.85,106.92,85.63,95,85.63,95s9.32,20.39,38.58,51.13C97.08,117,88.34,97.9,88.34,97.9Z"/><path class="cls-111" d="M175.83,192.28C102.41,161.52,76,129.5,76,129.5a196.13,196.13,0,0,1,56.76,30.43C155,177.12,175.83,192.28,175.83,192.28Z"/><path class="cls-112" d="M103.3,150.22S135,168.84,166.85,187.4c0,0-4.79-3.38-20.87-13.45Z"/><path class="cls-113" d="M114.58,159.27s22.65,15.29,45.67,25.19c0,0-8-4-20.33-10.66Z"/><path class="cls-114" d="M105.72,145.68s31.61,21.51,62.29,41.94L146,174Z"/><path class="cls-115" d="M115.85,150.23s26.45,16.5,45.78,32c0,0-8.51-5.34-20.23-14Z"/><path class="cls-116" d="M79,131.35s17.58,5.29,38.81,18.14c-22.55-14.2-41.79-20-41.79-20s12.7,15.37,44.91,35C90.86,145.76,79,131.35,79,131.35Z"/><path class="cls-117" d="M175.83,192.28c-69.28-9.41-99-30.56-99-30.56a172.56,172.56,0,0,1,55.08,12.91C154.68,184.16,175.83,192.28,175.83,192.28Z"/><path class="cls-118" d="M104.73,173.08s31.14,8.6,62.37,17.11c0,0-4.84-1.79-20.76-6.68Z"/><path class="cls-119" d="M116.36,178.2s22.69,7.82,44.48,11c0,0-7.73-1.55-19.68-4.43Z"/><path class="cls-120" d="M105.76,168.69s31.7,11.05,62.38,21.41c0,0-5.86-1.76-21.8-6.59Z"/><path class="cls-121" d="M115.39,170.24s26.19,8,46.1,16.73c0,0-8.43-2.6-20.34-7.26Z"/><path class="cls-122" d="M79.79,162.61a165.22,165.22,0,0,1,37,6.57,167.32,167.32,0,0,0-40-7.46s14.27,10.15,46.07,19.52C93.17,172.13,79.79,162.61,79.79,162.61Z"/><path class="cls-123" d="M175.12,192.14c-56.8,7.24-84.8-3.2-84.8-3.2a141.11,141.11,0,0,1,46.31-1.46C156.67,190.19,175.12,192.14,175.12,192.14Z"/><path class="cls-124" d="M114.8,192s26.46.19,53,.31c0,0-4.2-.39-17.83-.88Z"/><path class="cls-125" d="M125.09,193.6s19.61,1.37,37.52-.74c0,0-6.44.42-16.51.67Z"/><path class="cls-126" d="M114.68,188.32s27.43,2,53.9,3.72l-18.64-.59Z"/><path class="cls-127" d="M122.63,187.51s22.42.77,40,3.46c0,0-7.22-.27-17.63-1.43Z"/><path class="cls-128" d="M92.85,189a135.34,135.34,0,0,1,30.7-2.66,137.4,137.4,0,0,0-33.23,2.58s13.44,5,40.59,5.68C105.45,193.71,92.85,189,92.85,189Z"/></g></g></svg>