<svg id="OBJECTS" xmlns="http://www.w3.org/2000/svg" xmlns:xlink="http://www.w3.org/1999/xlink" viewBox="0 0 311.61 277.95"><defs><style>.cls-1{opacity:0.33;}.cls-2{fill:url(#Unbenannter_Verlauf_2);}.cls-3{fill:url(#Unbenannter_Verlauf_2-2);}.cls-4{fill:url(#Unbenannter_Verlauf_2-3);}.cls-5{fill:url(#Unbenannter_Verlauf_4);}.cls-6{fill:url(#Unbenannter_Verlauf_2-4);}.cls-7{fill:url(#Unbenannter_Verlauf_4-2);}.cls-8{fill:url(#Unbenannter_Verlauf_4-3);}.cls-9{fill:url(#Unbenannter_Verlauf_2-5);}.cls-10{fill:url(#Unbenannter_Verlauf_4-4);}.cls-11{fill:url(#Unbenannter_Verlauf_2-6);}.cls-12{fill:url(#Unbenannter_Verlauf_4-5);}.cls-13{fill:url(#Unbenannter_Verlauf_2-7);}.cls-14{fill:url(#Unbenannter_Verlauf_2-8);}.cls-15{fill:url(#Unbenannter_Verlauf_4-6);}.cls-16{fill:url(#Unbenannter_Verlauf_2-9);}.cls-17{fill:url(#Degradado_sin_nombre_374);}.cls-18{fill:url(#Unbenannter_Verlauf_2-10);}.cls-19{fill:url(#Unbenannter_Verlauf_4-7);}.cls-20{fill:url(#Unbenannter_Verlauf_2-11);}.cls-21{fill:url(#Unbenannter_Verlauf_4-8);}.cls-22{fill:url(#Unbenannter_Verlauf_2-12);}.cls-23{fill:url(#Unbenannter_Verlauf_4-9);}.cls-24{fill:url(#Unbenannter_Verlauf_4-10);}.cls-25{fill:url(#Unbenannter_Verlauf_2-13);}.cls-26{fill:url(#Unbenannter_Verlauf_2-14);}.cls-27{fill:url(#Unbenannter_Verlauf_4-11);}.cls-28{fill:url(#Unbenannter_Verlauf_2-15);}.cls-29{fill:url(#Unbenannter_Verlauf_4-12);}.cls-30{fill:url(#Unbenannter_Verlauf_2-16);}.cls-31{fill:url(#Unbenannter_Verlauf_4-13);}.cls-32{fill:url(#Unbenannter_Verlauf_2-17);}.cls-33{fill:url(#Unbenannter_Verlauf_4-14);}.cls-34{fill:url(#Unbenannter_Verlauf_2-18);}.cls-35{fill:url(#Unbenannter_Verlauf_4-15);}.cls-36{fill:url(#Unbenannter_Verlauf_2-19);}.cls-37{fill:url(#Unbenannter_Verlauf_2-20);}.cls-38{fill:url(#Unbenannter_Verlauf_4-16);}.cls-39{fill:url(#Unbenannter_Verlauf_4-17);}.cls-40{fill:url(#Unbenannter_Verlauf_2-21);}.cls-41{fill:url(#Unbenannter_Verlauf_2-22);}.cls-42{fill:url(#Unbenannter_Verlauf_4-18);}.cls-43{fill:url(#Unbenannter_Verlauf_2-23);}</style><linearGradient id="Unbenannter_Verlauf_2" x1="1028.34" y1="-220.89" x2="1028.53" y2="-220.89" gradientTransform="matrix(-0.39, -0.92, -0.92, 0.39, 371.23, 1153.73)" gradientUnits="userSpaceOnUse"><stop offset="0" stop-color="#a24065"/><stop offset="1" stop-color="#cf1da2"/></linearGradient><linearGradient id="Unbenannter_Verlauf_2-2" x1="1028.53" y1="-220.99" x2="1028.71" y2="-220.99" xlink:href="#Unbenannter_Verlauf_2"/><linearGradient id="Unbenannter_Verlauf_2-3" x1="1028.71" y1="-273.39" x2="1092.28" y2="-273.39" xlink:href="#Unbenannter_Verlauf_2"/><linearGradient id="Unbenannter_Verlauf_4" x1="1509.97" y1="55.84" x2="1610.26" y2="55.84" gradientTransform="translate(289.33 -1489.33) rotate(90.69)" gradientUnits="userSpaceOnUse"><stop offset="0.18" stop-color="#ed69ed"/><stop offset="1" stop-color="#ba2b98"/></linearGradient><linearGradient id="Unbenannter_Verlauf_2-4" x1="1023.82" y1="-264.05" x2="1061.18" y2="-264.05" xlink:href="#Unbenannter_Verlauf_2"/><linearGradient id="Unbenannter_Verlauf_4-2" x1="1543.62" y1="57.26" x2="1616.63" y2="57.26" xlink:href="#Unbenannter_Verlauf_4"/><linearGradient id="Unbenannter_Verlauf_4-3" x1="1580.62" y1="52.97" x2="1626.33" y2="52.97" xlink:href="#Unbenannter_Verlauf_4"/><linearGradient id="Unbenannter_Verlauf_2-5" x1="1012.06" y1="-258.73" x2="1021.62" y2="-258.73" xlink:href="#Unbenannter_Verlauf_2"/><linearGradient id="Unbenannter_Verlauf_4-4" x1="1601.64" y1="58.48" x2="1632.99" y2="58.48" xlink:href="#Unbenannter_Verlauf_4"/><linearGradient id="Unbenannter_Verlauf_2-6" x1="996.85" y1="-248.18" x2="1014.6" y2="-248.18" xlink:href="#Unbenannter_Verlauf_2"/><linearGradient id="Unbenannter_Verlauf_4-5" x1="1627.05" y1="68.86" x2="1643.96" y2="68.86" xlink:href="#Unbenannter_Verlauf_4"/><linearGradient id="Unbenannter_Verlauf_2-7" x1="977.91" y1="-231.45" x2="1008.56" y2="-231.45" xlink:href="#Unbenannter_Verlauf_2"/><linearGradient id="Unbenannter_Verlauf_2-8" x1="959.43" y1="-210.97" x2="1003.25" y2="-210.97" xlink:href="#Unbenannter_Verlauf_2"/><linearGradient id="Unbenannter_Verlauf_4-6" x1="1646.07" y1="81.74" x2="1660.53" y2="81.74" xlink:href="#Unbenannter_Verlauf_4"/><linearGradient id="Unbenannter_Verlauf_2-9" x1="939.03" y1="-197.42" x2="999.22" y2="-197.42" xlink:href="#Unbenannter_Verlauf_2"/><linearGradient id="Degradado_sin_nombre_374" x1="1658.79" y1="89.34" x2="1687.27" y2="89.34" gradientTransform="translate(289.33 -1489.33) rotate(90.69)" gradientUnits="userSpaceOnUse"><stop offset="0.06" stop-color="#ed30c4"/><stop offset="0.09" stop-color="#ef41cc"/><stop offset="0.22" stop-color="#fea6f8"/><stop offset="0.29" stop-color="#f290e7"/><stop offset="0.63" stop-color="#ba2b98"/><stop offset="0.86" stop-color="#780c79"/><stop offset="0.98" stop-color="#5d006d"/></linearGradient><linearGradient id="Unbenannter_Verlauf_2-10" x1="1009.99" y1="-203.79" x2="1085.46" y2="-203.79" xlink:href="#Unbenannter_Verlauf_2"/><linearGradient id="Unbenannter_Verlauf_4-7" x1="1550.39" y1="114.37" x2="1648.04" y2="114.37" xlink:href="#Unbenannter_Verlauf_4"/><linearGradient id="Unbenannter_Verlauf_2-11" x1="1005.1" y1="-183.89" x2="1092.7" y2="-183.89" xlink:href="#Unbenannter_Verlauf_2"/><linearGradient id="Unbenannter_Verlauf_4-8" x1="1553.91" y1="132.21" x2="1658.15" y2="132.21" xlink:href="#Unbenannter_Verlauf_4"/><linearGradient id="Unbenannter_Verlauf_2-12" x1="929.02" y1="-175.83" x2="999.25" y2="-175.83" xlink:href="#Unbenannter_Verlauf_2"/><linearGradient id="Unbenannter_Verlauf_4-9" x1="1667.01" y1="107.19" x2="1707.09" y2="107.19" xlink:href="#Unbenannter_Verlauf_4"/><linearGradient id="Unbenannter_Verlauf_4-10" x1="1671.99" y1="125.55" x2="1734.25" y2="125.55" xlink:href="#Unbenannter_Verlauf_4"/><linearGradient id="Unbenannter_Verlauf_2-13" x1="915.9" y1="-153.43" x2="997.8" y2="-153.43" xlink:href="#Unbenannter_Verlauf_2"/><linearGradient id="Unbenannter_Verlauf_2-14" x1="996.6" y1="-126.59" x2="997.28" y2="-126.59" xlink:href="#Unbenannter_Verlauf_2"/><linearGradient id="Unbenannter_Verlauf_4-11" x1="1676.74" y1="142.32" x2="1747.43" y2="142.32" xlink:href="#Unbenannter_Verlauf_4"/><linearGradient id="Unbenannter_Verlauf_2-15" x1="914.27" y1="-134.25" x2="997.28" y2="-134.25" xlink:href="#Unbenannter_Verlauf_2"/><linearGradient id="Unbenannter_Verlauf_4-12" x1="1684.23" y1="164.49" x2="1738.55" y2="164.49" xlink:href="#Unbenannter_Verlauf_4"/><linearGradient id="Unbenannter_Verlauf_2-16" x1="937.23" y1="-114.9" x2="994.46" y2="-114.9" xlink:href="#Unbenannter_Verlauf_2"/><linearGradient id="Unbenannter_Verlauf_4-13" x1="1529.95" y1="95.68" x2="1629.54" y2="95.68" xlink:href="#Unbenannter_Verlauf_4"/><linearGradient id="Unbenannter_Verlauf_2-17" x1="1018.07" y1="-223.95" x2="1102.93" y2="-223.95" xlink:href="#Unbenannter_Verlauf_2"/><linearGradient id="Unbenannter_Verlauf_4-14" x1="1633.76" y1="185.21" x2="1685.6" y2="185.21" xlink:href="#Unbenannter_Verlauf_4"/><linearGradient id="Unbenannter_Verlauf_2-18" x1="998.14" y1="-114.97" x2="1042.31" y2="-114.97" xlink:href="#Unbenannter_Verlauf_2"/><linearGradient id="Unbenannter_Verlauf_4-15" x1="1611.31" y1="173.43" x2="1678.83" y2="173.43" xlink:href="#Unbenannter_Verlauf_4"/><linearGradient id="Unbenannter_Verlauf_2-19" x1="999.5" y1="-131.65" x2="1058.37" y2="-131.65" xlink:href="#Unbenannter_Verlauf_2"/><linearGradient id="Unbenannter_Verlauf_2-20" x1="1000.55" y1="-140.27" x2="1069.16" y2="-140.27" xlink:href="#Unbenannter_Verlauf_2"/><linearGradient id="Unbenannter_Verlauf_4-16" x1="1596.64" y1="165.76" x2="1675.8" y2="165.76" xlink:href="#Unbenannter_Verlauf_4"/><linearGradient id="Unbenannter_Verlauf_4-17" x1="1587.12" y1="156.75" x2="1674.9" y2="156.75" xlink:href="#Unbenannter_Verlauf_4"/><linearGradient id="Unbenannter_Verlauf_2-21" x1="999.99" y1="-151.14" x2="1071.68" y2="-151.14" xlink:href="#Unbenannter_Verlauf_2"/><linearGradient id="Unbenannter_Verlauf_2-22" x1="1001.73" y1="-169.58" x2="1088.92" y2="-169.58" xlink:href="#Unbenannter_Verlauf_2"/><linearGradient id="Unbenannter_Verlauf_4-18" x1="1563.7" y1="141.93" x2="1666.27" y2="141.93" xlink:href="#Unbenannter_Verlauf_4"/><linearGradient id="Unbenannter_Verlauf_2-23" x1="987.47" y1="-132.78" x2="1034.12" y2="-132.78" xlink:href="#Unbenannter_Verlauf_2"/></defs><g class="cls-1"><path class="cls-2" d="M178.72,119.45a1.66,1.66,0,0,0,0,.22Z"/><path class="cls-3" d="M178.74,119.25a1.68,1.68,0,0,0,0,.2A1.36,1.36,0,0,1,178.74,119.25Z"/><path class="cls-4" d="M206.52,81.58c-19.59,18.17-27.05,33.23-27.78,37.67a39.34,39.34,0,0,1,2.94-10.63c2.32-4.81,11.67-22.38,34.4-44.72s34.77-43.66,34.77-43.66C241.1,46.61,226.77,62.79,206.52,81.58Z"/><path class="cls-5" d="M228.63,68.16C209.48,89.25,191,97.23,178.69,119.67a1.66,1.66,0,0,1,0-.22,1.68,1.68,0,0,1,0-.2c.73-4.44,8.19-19.5,27.78-37.67,20.25-18.79,34.58-35,44.33-61.34C250.85,20.24,247.78,47.06,228.63,68.16Z"/><path class="cls-6" d="M251,53.89c5.14,28-20.6,44.68-36.62,51.21S175.27,126,175.27,126c3.5-2.19,16.65-14.06,44.33-30.83S251,53.89,251,53.89Z"/><path class="cls-7" d="M251,53.89s-3.66,24.5-31.35,41.28S178.77,123.81,175.27,126c0,0,18.43-16.07,42.63-34.93S251,53.89,251,53.89Z"/><path class="cls-8" d="M204.84,117.32c-18.9,5.47-31,11.6-37.72,18.28,0,0,16.64-21.1,50.76-27.55s49.23-17,49.23-17C251.38,103.39,223.75,111.86,204.84,117.32Z"/><path class="cls-9" d="M204.84,117.32c18.91-5.46,46.54-13.93,62.27-26.23-23.19,26-49.89,27.87-66.24,30.62s-33.75,13.89-33.75,13.89C173.8,128.92,185.94,122.79,204.84,117.32Z"/><path class="cls-10" d="M208.36,123c30.83-5.1,52.1-11,52.1-11-21.62,12.69-45.79,18.17-64,19.2s-34,11-34,11S177.53,128.1,208.36,123Z"/><path class="cls-11" d="M196.46,131.23c18.21-1,42.38-6.51,64-19.2-31.54,30.78-57.34,23.85-74.06,25.55s-24,4.62-24,4.62S178.24,132.26,196.46,131.23Z"/><path class="cls-12" d="M190.54,143.48c25.38,1,30.74,4.83,43.41.9s17.6-7,17.6-7c-12,11.17-26.19,16.13-49.93,10S150.15,153,150.15,153,165.15,142.46,190.54,143.48Z"/><path class="cls-13" d="M251.55,137.33c-14.93,20.27-36.36,17.87-53.85,15.27s-47.55.42-47.55.42,27.73-11.73,51.47-5.65S239.52,148.5,251.55,137.33Z"/><path class="cls-14" d="M235.49,170.63c-28.64,8.46-57.23-3.52-67.39-6.71s-28.17-.87-28.17-.87,16.64-5,40.3-3.87S220.21,166.47,235.49,170.63Z"/><path class="cls-15" d="M235.49,170.63c-15.28-4.16-31.6-10.29-55.26-11.45s-40.3,3.87-40.3,3.87,22.86-10.59,55.88-6.66S235.49,170.63,235.49,170.63Z"/><path class="cls-16" d="M224.72,197.24c-29,2.45-53.87-15.63-62.93-21s-26.69-6.82-26.69-6.82,16.87-1.54,39.2,4.63S211,189.83,224.72,197.24Z"/><path class="cls-17" d="M224.72,197.24c-13.74-7.41-28.09-17-50.42-23.18s-39.2-4.63-39.2-4.63,23.9-5.81,54.61,5.12S224.72,197.24,224.72,197.24Z"/><path class="cls-18" d="M174,59.74c-17.78,22.49-22.74,57.58-25.17,69.4S137,157,137,157s10.41-13,20-36.62S169.9,77.11,174,59.74Z"/><path class="cls-19" d="M174,59.74c-4,17.37-7.33,37-16.92,60.59S137,157,137,157s16.6-15.59,28.53-50S174,59.74,174,59.74Z"/><path class="cls-20" d="M147.5,63c-14.17,26.54-13.7,61.82-14.29,73.91s-7.36,30.06-7.36,30.06,8.32-15.37,14.19-40.81S146.15,80.84,147.5,63Z"/><path class="cls-21" d="M147.5,63c-1.35,17.89-1.59,37.72-7.46,63.16s-14.19,40.81-14.19,40.81,14.05-19.54,20.59-56S147.5,63,147.5,63Z"/><path class="cls-22" d="M203.83,216.8c-29.72-4-50.65-23.81-58.55-30S120,175.72,120,175.72s17.32,2.25,38.39,11.87S191.69,208,203.83,216.8Z"/><path class="cls-23" d="M203.83,216.8c-12.14-8.84-24.4-19.59-45.47-29.21S120,175.72,120,175.72s25.37.26,53.79,15.47S203.83,216.8,203.83,216.8Z"/><path class="cls-24" d="M136.56,198.56c-16.62-6.62-24.52-18-24.52-18A113.22,113.22,0,0,0,139.14,196c15.67,6.1,41.16,18.87,34.55,47.65C175.09,225.81,156.27,206.4,136.56,198.56Z"/><path class="cls-25" d="M146,212.06C109.77,187.57,112,180.6,112,180.6s7.9,11.34,24.52,18c19.71,7.84,38.53,27.25,37.13,45.05C173.69,243.61,170.12,228.4,146,212.06Z"/><path class="cls-26" d="M104,185.26c-.25-.38-.37-.59-.37-.59Z"/><path class="cls-27" d="M124.74,211.63c-10.12-10.16-18.87-23.47-20.73-26.37a47.82,47.82,0,0,0,12.9,13.16c8.19,5.31,40.37,16.77,30.25,58.05C146.75,241.16,136.15,223.11,124.74,211.63Z"/><path class="cls-28" d="M103.64,184.67s.12.21.37.59c1.86,2.9,10.61,16.21,20.73,26.37,11.41,11.48,22,29.53,22.42,44.84,0,0-6.95-7.76-21.43-30.12A264.07,264.07,0,0,1,103.64,184.67Z"/><path class="cls-29" d="M92,192.6c19.31,6.26,34.38,25.8,17.92,54.54C119.09,224.78,110.75,205.59,92,192.6Z"/><path class="cls-30" d="M105.34,213.35C99.62,199.37,92,192.6,92,192.6c18.77,13,27.11,32.18,17.92,54.54C109.9,247.14,111.06,227.34,105.34,213.35Z"/><path class="cls-31" d="M177.48,39.34s12.55,4.52,11.8,33.27-29.56,66.12-29.56,66.12C188.37,88.08,190.44,55,177.48,39.34Z"/><path class="cls-32" d="M177.48,39.34c13,15.7,10.89,48.74-17.76,99.39C184.69,81.26,183.53,54.66,177.48,39.34Z"/><path class="cls-33" d="M87.23,171.64c-2.2,13.71-7.72,22.18-7.72,22.18l9.24-51.72S89.44,157.94,87.23,171.64Z"/><path class="cls-34" d="M79.51,193.82c-3.77-19.8,9.24-51.72,9.24-51.72Z"/><path class="cls-35" d="M97.94,158.5c-2,17.81-6.1,28.7-6.1,28.7l8.66-67.42S99.89,140.68,97.94,158.5Z"/><path class="cls-36" d="M91.84,187.2c-6.86-24.34,8.66-67.42,8.66-67.42Z"/><path class="cls-37" d="M96.24,184.22s3-15.6,5.3-33.33,5.89-45.7,5.89-45.7A179.15,179.15,0,0,1,105,151C100.37,175.24,96.24,184.22,96.24,184.22Z"/><path class="cls-38" d="M96.24,184.22s4.13-9,8.74-33.27a179.15,179.15,0,0,0,2.45-45.76S121.45,146.62,96.24,184.22Z"/><path class="cls-39" d="M123.22,95.87A53.89,53.89,0,0,1,126,115.2c-.55,10.3.43,29.76-26.26,68.16C116,159.34,121.12,135.23,123.22,95.87Z"/><path class="cls-40" d="M106.29,168.72c3-7.25,3.87-20.45,7.44-35.09s9.49-37.76,9.49-37.76c-2.1,39.36-7.2,63.47-23.46,87.49C99.76,183.36,103.27,176,106.29,168.72Z"/><path class="cls-41" d="M131.08,130.54c-6.59,28.29-15.65,44.38-15.65,44.38s4.51-11.41,6.69-30.29,12.14-72.06,12.14-72.06S137.68,102.24,131.08,130.54Z"/><path class="cls-42" d="M131.08,130.54c6.6-28.3,3.18-58,3.18-58s2.87,3.77,4.53,12.81,7.31,39.89-23.36,89.54C115.43,174.92,124.49,158.83,131.08,130.54Z"/><path class="cls-43" d="M180.11,112.81c-15,28.53-76.48,74-125.3,94.48S29.48,228,59.08,213.66s58-33.58,85-55.55,34.67-38.66,34.67-38.66Z"/></g></svg>