<svg xmlns="http://www.w3.org/2000/svg" xmlns:xlink="http://www.w3.org/1999/xlink" viewBox="0 0 233.8 197.49"><defs><style>.cls-1{isolation:isolate;}.cls-2{fill:url(#Degradado_sin_nombre_303);}.cls-3{fill:url(#Degradado_sin_nombre_303-2);}.cls-10,.cls-100,.cls-101,.cls-102,.cls-104,.cls-105,.cls-106,.cls-107,.cls-11,.cls-12,.cls-14,.cls-15,.cls-16,.cls-17,.cls-19,.cls-20,.cls-21,.cls-22,.cls-24,.cls-25,.cls-26,.cls-27,.cls-29,.cls-30,.cls-31,.cls-32,.cls-34,.cls-35,.cls-36,.cls-37,.cls-39,.cls-4,.cls-40,.cls-41,.cls-42,.cls-44,.cls-45,.cls-46,.cls-47,.cls-49,.cls-5,.cls-50,.cls-51,.cls-52,.cls-54,.cls-55,.cls-56,.cls-57,.cls-59,.cls-6,.cls-60,.cls-61,.cls-62,.cls-64,.cls-65,.cls-66,.cls-67,.cls-69,.cls-7,.cls-70,.cls-71,.cls-72,.cls-74,.cls-75,.cls-76,.cls-77,.cls-79,.cls-80,.cls-81,.cls-82,.cls-84,.cls-85,.cls-86,.cls-87,.cls-89,.cls-9,.cls-90,.cls-91,.cls-92,.cls-94,.cls-95,.cls-96,.cls-97,.cls-99{opacity:0.45;mix-blend-mode:multiply;}.cls-4{fill:url(#Unbenannter_Verlauf_6);}.cls-5{fill:url(#Unbenannter_Verlauf_6-2);}.cls-6{fill:url(#Unbenannter_Verlauf_6-3);}.cls-7{fill:url(#Unbenannter_Verlauf_6-4);}.cls-8{fill:url(#Degradado_sin_nombre_303-3);}.cls-9{fill:url(#Unbenannter_Verlauf_6-5);}.cls-10{fill:url(#Unbenannter_Verlauf_6-6);}.cls-11{fill:url(#Unbenannter_Verlauf_6-7);}.cls-12{fill:url(#Unbenannter_Verlauf_6-8);}.cls-13{fill:url(#Degradado_sin_nombre_303-4);}.cls-14{fill:url(#Unbenannter_Verlauf_6-9);}.cls-15{fill:url(#Unbenannter_Verlauf_6-10);}.cls-16{fill:url(#Unbenannter_Verlauf_6-11);}.cls-17{fill:url(#Unbenannter_Verlauf_6-12);}.cls-18{fill:url(#Degradado_sin_nombre_303-5);}.cls-19{fill:url(#Unbenannter_Verlauf_6-13);}.cls-20{fill:url(#Unbenannter_Verlauf_6-14);}.cls-21{fill:url(#Unbenannter_Verlauf_6-15);}.cls-22{fill:url(#Unbenannter_Verlauf_6-16);}.cls-23{fill:url(#Degradado_sin_nombre_303-6);}.cls-24{fill:url(#Unbenannter_Verlauf_6-17);}.cls-25{fill:url(#Unbenannter_Verlauf_6-18);}.cls-26{fill:url(#Unbenannter_Verlauf_6-19);}.cls-27{fill:url(#Unbenannter_Verlauf_6-20);}.cls-28{fill:url(#Degradado_sin_nombre_303-7);}.cls-29{fill:url(#Unbenannter_Verlauf_6-21);}.cls-30{fill:url(#Unbenannter_Verlauf_6-22);}.cls-31{fill:url(#Unbenannter_Verlauf_6-23);}.cls-32{fill:url(#Unbenannter_Verlauf_6-24);}.cls-33{fill:url(#Degradado_sin_nombre_303-8);}.cls-34{fill:url(#Unbenannter_Verlauf_6-25);}.cls-35{fill:url(#Unbenannter_Verlauf_6-26);}.cls-36{fill:url(#Unbenannter_Verlauf_6-27);}.cls-37{fill:url(#Unbenannter_Verlauf_6-28);}.cls-38{fill:url(#Degradado_sin_nombre_303-9);}.cls-39{fill:url(#Unbenannter_Verlauf_6-29);}.cls-40{fill:url(#Unbenannter_Verlauf_6-30);}.cls-41{fill:url(#Unbenannter_Verlauf_6-31);}.cls-42{fill:url(#Unbenannter_Verlauf_6-32);}.cls-43{fill:url(#Degradado_sin_nombre_303-10);}.cls-44{fill:url(#Unbenannter_Verlauf_6-33);}.cls-45{fill:url(#Unbenannter_Verlauf_6-34);}.cls-46{fill:url(#Unbenannter_Verlauf_6-35);}.cls-47{fill:url(#Unbenannter_Verlauf_6-36);}.cls-48{fill:url(#Degradado_sin_nombre_303-11);}.cls-49{fill:url(#Unbenannter_Verlauf_6-37);}.cls-50{fill:url(#Unbenannter_Verlauf_6-38);}.cls-51{fill:url(#Unbenannter_Verlauf_6-39);}.cls-52{fill:url(#Unbenannter_Verlauf_6-40);}.cls-53{fill:url(#Degradado_sin_nombre_303-12);}.cls-54{fill:url(#Unbenannter_Verlauf_6-41);}.cls-55{fill:url(#Unbenannter_Verlauf_6-42);}.cls-56{fill:url(#Unbenannter_Verlauf_6-43);}.cls-57{fill:url(#Unbenannter_Verlauf_6-44);}.cls-58{fill:url(#Degradado_sin_nombre_303-13);}.cls-59{fill:url(#Unbenannter_Verlauf_6-45);}.cls-60{fill:url(#Unbenannter_Verlauf_6-46);}.cls-61{fill:url(#Unbenannter_Verlauf_6-47);}.cls-62{fill:url(#Unbenannter_Verlauf_6-48);}.cls-63{fill:url(#Degradado_sin_nombre_303-14);}.cls-64{fill:url(#Unbenannter_Verlauf_6-49);}.cls-65{fill:url(#Unbenannter_Verlauf_6-50);}.cls-66{fill:url(#Unbenannter_Verlauf_6-51);}.cls-67{fill:url(#Unbenannter_Verlauf_6-52);}.cls-68{fill:url(#Degradado_sin_nombre_303-15);}.cls-69{fill:url(#Unbenannter_Verlauf_6-53);}.cls-70{fill:url(#Unbenannter_Verlauf_6-54);}.cls-71{fill:url(#Unbenannter_Verlauf_6-55);}.cls-72{fill:url(#Unbenannter_Verlauf_6-56);}.cls-73{fill:url(#Degradado_sin_nombre_303-16);}.cls-74{fill:url(#Unbenannter_Verlauf_6-57);}.cls-75{fill:url(#Unbenannter_Verlauf_6-58);}.cls-76{fill:url(#Unbenannter_Verlauf_6-59);}.cls-77{fill:url(#Unbenannter_Verlauf_6-60);}.cls-78{fill:url(#Degradado_sin_nombre_303-17);}.cls-79{fill:url(#Unbenannter_Verlauf_6-61);}.cls-80{fill:url(#Unbenannter_Verlauf_6-62);}.cls-81{fill:url(#Unbenannter_Verlauf_6-63);}.cls-82{fill:url(#Unbenannter_Verlauf_6-64);}.cls-83{fill:url(#Degradado_sin_nombre_303-18);}.cls-84{fill:url(#Unbenannter_Verlauf_6-65);}.cls-85{fill:url(#Unbenannter_Verlauf_6-66);}.cls-86{fill:url(#Unbenannter_Verlauf_6-67);}.cls-87{fill:url(#Unbenannter_Verlauf_6-68);}.cls-88{fill:url(#Degradado_sin_nombre_303-19);}.cls-89{fill:url(#Unbenannter_Verlauf_6-69);}.cls-90{fill:url(#Unbenannter_Verlauf_6-70);}.cls-91{fill:url(#Unbenannter_Verlauf_6-71);}.cls-92{fill:url(#Unbenannter_Verlauf_6-72);}.cls-93{fill:url(#Degradado_sin_nombre_303-20);}.cls-94{fill:url(#Unbenannter_Verlauf_6-73);}.cls-95{fill:url(#Unbenannter_Verlauf_6-74);}.cls-96{fill:url(#Unbenannter_Verlauf_6-75);}.cls-97{fill:url(#Unbenannter_Verlauf_6-76);}.cls-98{fill:url(#Degradado_sin_nombre_303-21);}.cls-99{fill:url(#Unbenannter_Verlauf_6-77);}.cls-100{fill:url(#Unbenannter_Verlauf_6-78);}.cls-101{fill:url(#Unbenannter_Verlauf_6-79);}.cls-102{fill:url(#Unbenannter_Verlauf_6-80);}.cls-103{fill:url(#Degradado_sin_nombre_303-22);}.cls-104{fill:url(#Unbenannter_Verlauf_6-81);}.cls-105{fill:url(#Unbenannter_Verlauf_6-82);}.cls-106{fill:url(#Unbenannter_Verlauf_6-83);}.cls-107{fill:url(#Unbenannter_Verlauf_6-84);}</style><linearGradient id="Degradado_sin_nombre_303" x1="59.56" y1="-43.61" x2="185.13" y2="80.29" gradientUnits="userSpaceOnUse"><stop offset="0.01" stop-color="#5d006d"/><stop offset="0.1" stop-color="#9f1f8c"/><stop offset="0.14" stop-color="#ba2b98"/><stop offset="0.17" stop-color="#c946ad"/><stop offset="0.26" stop-color="#ef8be3"/><stop offset="0.3" stop-color="#fea6f8"/><stop offset="0.32" stop-color="#f290e7"/><stop offset="0.43" stop-color="#ba2b98"/><stop offset="0.61" stop-color="#841f75"/><stop offset="0.72" stop-color="#691963"/><stop offset="0.89" stop-color="#390c43"/><stop offset="1" stop-color="#1e0431"/></linearGradient><linearGradient id="Degradado_sin_nombre_303-2" x1="-11.91" y1="28.82" x2="113.66" y2="152.72" xlink:href="#Degradado_sin_nombre_303"/><linearGradient id="Unbenannter_Verlauf_6" x1="-125.33" y1="-839.65" x2="-125.78" y2="-941.11" gradientTransform="matrix(0.45, -0.89, -0.89, -0.45, -1047.19, -602.48)" gradientUnits="userSpaceOnUse"><stop offset="0.18" stop-color="#ed69ed"/><stop offset="0.58" stop-color="#9e4558"/></linearGradient><linearGradient id="Unbenannter_Verlauf_6-2" x1="-120.72" y1="-841.06" x2="-121.17" y2="-942.26" xlink:href="#Unbenannter_Verlauf_6"/><linearGradient id="Unbenannter_Verlauf_6-3" x1="-126.46" y1="-835.58" x2="-126.91" y2="-937.82" xlink:href="#Unbenannter_Verlauf_6"/><linearGradient id="Unbenannter_Verlauf_6-4" x1="-125.75" y1="-834.18" x2="-126.2" y2="-936.68" xlink:href="#Unbenannter_Verlauf_6"/><linearGradient id="Degradado_sin_nombre_303-3" x1="-7.77" y1="24.63" x2="117.8" y2="148.53" xlink:href="#Degradado_sin_nombre_303"/><linearGradient id="Unbenannter_Verlauf_6-5" x1="-70.48" y1="-948.17" x2="-70.9" y2="-1041.17" gradientTransform="matrix(0.6, -0.8, -0.8, -0.6, -992.56, -796.32)" xlink:href="#Unbenannter_Verlauf_6"/><linearGradient id="Unbenannter_Verlauf_6-6" x1="-66.39" y1="-956.74" x2="-66.8" y2="-1048.12" gradientTransform="matrix(0.6, -0.8, -0.8, -0.6, -992.56, -796.32)" xlink:href="#Unbenannter_Verlauf_6"/><linearGradient id="Unbenannter_Verlauf_6-7" x1="-70.98" y1="-923.08" x2="-71.42" y2="-1020.91" gradientTransform="matrix(0.6, -0.8, -0.8, -0.6, -992.56, -796.32)" xlink:href="#Unbenannter_Verlauf_6"/><linearGradient id="Unbenannter_Verlauf_6-8" x1="-70.05" y1="-914.5" x2="-70.49" y2="-1013.92" gradientTransform="matrix(0.6, -0.8, -0.8, -0.6, -992.56, -796.32)" xlink:href="#Unbenannter_Verlauf_6"/><linearGradient id="Degradado_sin_nombre_303-4" x1="6.15" y1="10.53" x2="131.72" y2="134.43" xlink:href="#Degradado_sin_nombre_303"/><linearGradient id="Unbenannter_Verlauf_6-9" x1="22.4" y1="-1155.94" x2="22.07" y2="-1230.74" gradientTransform="matrix(0.79, -0.62, -0.62, -0.79, -861.18, -1096.78)" xlink:href="#Unbenannter_Verlauf_6"/><linearGradient id="Unbenannter_Verlauf_6-10" x1="25.69" y1="-1162.83" x2="25.37" y2="-1236.34" gradientTransform="matrix(0.79, -0.62, -0.62, -0.79, -861.18, -1096.78)" xlink:href="#Unbenannter_Verlauf_6"/><linearGradient id="Unbenannter_Verlauf_6-11" x1="22" y1="-1135.77" x2="21.65" y2="-1214.45" gradientTransform="matrix(0.79, -0.62, -0.62, -0.79, -861.18, -1096.78)" xlink:href="#Unbenannter_Verlauf_6"/><linearGradient id="Unbenannter_Verlauf_6-12" x1="22.75" y1="-1128.86" x2="22.4" y2="-1208.83" gradientTransform="matrix(0.79, -0.62, -0.62, -0.79, -861.18, -1096.78)" xlink:href="#Unbenannter_Verlauf_6"/><linearGradient id="Degradado_sin_nombre_303-5" x1="16.53" y1="0" x2="142.11" y2="123.9" xlink:href="#Degradado_sin_nombre_303"/><linearGradient id="Unbenannter_Verlauf_6-13" x1="137.97" y1="-1303.67" x2="137.69" y2="-1366.74" gradientTransform="matrix(0.92, -0.39, -0.39, -0.92, -657.07, -1352.28)" xlink:href="#Unbenannter_Verlauf_6"/><linearGradient id="Unbenannter_Verlauf_6-14" x1="140.75" y1="-1309.48" x2="140.47" y2="-1371.45" gradientTransform="matrix(0.92, -0.39, -0.39, -0.92, -657.07, -1352.28)" xlink:href="#Unbenannter_Verlauf_6"/><linearGradient id="Unbenannter_Verlauf_6-15" x1="137.63" y1="-1286.66" x2="137.34" y2="-1353" gradientTransform="matrix(0.92, -0.39, -0.39, -0.92, -657.07, -1352.28)" xlink:href="#Unbenannter_Verlauf_6"/><linearGradient id="Unbenannter_Verlauf_6-16" x1="138.27" y1="-1280.84" x2="137.97" y2="-1348.26" gradientTransform="matrix(0.92, -0.39, -0.39, -0.92, -657.07, -1352.28)" xlink:href="#Unbenannter_Verlauf_6"/><linearGradient id="Degradado_sin_nombre_303-6" x1="26.37" y1="-9.97" x2="151.94" y2="113.93" xlink:href="#Degradado_sin_nombre_303"/><linearGradient id="Unbenannter_Verlauf_6-17" x1="272.52" y1="-1427.62" x2="272.3" y2="-1477.48" gradientTransform="matrix(0.99, -0.14, -0.14, -0.99, -393.39, -1546.28)" xlink:href="#Unbenannter_Verlauf_6"/><linearGradient id="Unbenannter_Verlauf_6-18" x1="274.71" y1="-1432.21" x2="274.5" y2="-1481.2" gradientTransform="matrix(0.99, -0.14, -0.14, -0.99, -393.39, -1546.28)" xlink:href="#Unbenannter_Verlauf_6"/><linearGradient id="Unbenannter_Verlauf_6-19" x1="272.25" y1="-1414.17" x2="272.02" y2="-1466.62" gradientTransform="matrix(0.99, -0.14, -0.14, -0.99, -393.39, -1546.28)" xlink:href="#Unbenannter_Verlauf_6"/><linearGradient id="Unbenannter_Verlauf_6-20" x1="272.75" y1="-1409.57" x2="272.51" y2="-1462.87" gradientTransform="matrix(0.99, -0.14, -0.14, -0.99, -393.39, -1546.28)" xlink:href="#Unbenannter_Verlauf_6"/><linearGradient id="Degradado_sin_nombre_303-7" x1="32.58" y1="-16.27" x2="158.15" y2="107.63" xlink:href="#Degradado_sin_nombre_303"/><linearGradient id="Unbenannter_Verlauf_6-21" x1="411.49" y1="-1447.69" x2="411.26" y2="-1497.55" gradientTransform="matrix(0.99, 0.12, 0.12, -0.99, -89.47, -1665.58)" xlink:href="#Unbenannter_Verlauf_6"/><linearGradient id="Unbenannter_Verlauf_6-22" x1="413.68" y1="-1452.28" x2="413.46" y2="-1501.28" gradientTransform="matrix(0.99, 0.12, 0.12, -0.99, -89.47, -1665.58)" xlink:href="#Unbenannter_Verlauf_6"/><linearGradient id="Unbenannter_Verlauf_6-23" x1="411.22" y1="-1434.24" x2="410.98" y2="-1486.69" gradientTransform="matrix(0.99, 0.12, 0.12, -0.99, -89.47, -1665.58)" xlink:href="#Unbenannter_Verlauf_6"/><linearGradient id="Unbenannter_Verlauf_6-24" x1="411.72" y1="-1429.64" x2="411.48" y2="-1482.94" gradientTransform="matrix(0.99, 0.12, 0.12, -0.99, -89.47, -1665.58)" xlink:href="#Unbenannter_Verlauf_6"/><linearGradient id="Degradado_sin_nombre_303-8" x1="-3.72" y1="20.52" x2="121.85" y2="144.42" xlink:href="#Degradado_sin_nombre_303"/><linearGradient id="Unbenannter_Verlauf_6-25" x1="-49.87" y1="-1018.42" x2="-50.28" y2="-1110.91" gradientTransform="matrix(0.68, -0.73, -0.73, -0.68, -951.92, -946.58)" xlink:href="#Unbenannter_Verlauf_6"/><linearGradient id="Unbenannter_Verlauf_6-26" x1="-45.68" y1="-1020.35" x2="-46.09" y2="-1112.47" gradientTransform="matrix(0.68, -0.73, -0.73, -0.68, -951.92, -946.58)" xlink:href="#Unbenannter_Verlauf_6"/><linearGradient id="Unbenannter_Verlauf_6-27" x1="-50.85" y1="-1012.82" x2="-51.27" y2="-1106.38" gradientTransform="matrix(0.68, -0.73, -0.73, -0.68, -951.92, -946.58)" xlink:href="#Unbenannter_Verlauf_6"/><linearGradient id="Unbenannter_Verlauf_6-28" x1="-50.18" y1="-1010.9" x2="-50.59" y2="-1104.81" gradientTransform="matrix(0.68, -0.73, -0.73, -0.68, -951.92, -946.58)" xlink:href="#Unbenannter_Verlauf_6"/><linearGradient id="Degradado_sin_nombre_303-9" x1="5.98" y1="10.69" x2="131.55" y2="134.59" xlink:href="#Degradado_sin_nombre_303"/><linearGradient id="Unbenannter_Verlauf_6-29" x1="48.49" y1="-1166.25" x2="48.12" y2="-1249.97" gradientTransform="matrix(0.85, -0.53, -0.53, -0.85, -782.51, -1231.3)" xlink:href="#Unbenannter_Verlauf_6"/><linearGradient id="Unbenannter_Verlauf_6-30" x1="52.28" y1="-1167.99" x2="51.92" y2="-1251.38" gradientTransform="matrix(0.85, -0.53, -0.53, -0.85, -782.51, -1231.3)" xlink:href="#Unbenannter_Verlauf_6"/><linearGradient id="Unbenannter_Verlauf_6-31" x1="47.6" y1="-1161.19" x2="47.23" y2="-1245.88" gradientTransform="matrix(0.85, -0.53, -0.53, -0.85, -782.51, -1231.3)" xlink:href="#Unbenannter_Verlauf_6"/><linearGradient id="Unbenannter_Verlauf_6-32" x1="48.21" y1="-1159.45" x2="47.84" y2="-1244.46" gradientTransform="matrix(0.85, -0.53, -0.53, -0.85, -782.51, -1231.3)" xlink:href="#Unbenannter_Verlauf_6"/><linearGradient id="Degradado_sin_nombre_303-10" x1="16.53" y1="0" x2="142.11" y2="123.9" xlink:href="#Degradado_sin_nombre_303"/><linearGradient id="Unbenannter_Verlauf_6-33" x1="171.75" y1="-1288.91" x2="171.42" y2="-1363.37" gradientTransform="matrix(0.96, -0.29, -0.29, -0.96, -546.68, -1461.96)" xlink:href="#Unbenannter_Verlauf_6"/><linearGradient id="Unbenannter_Verlauf_6-34" x1="175.12" y1="-1290.46" x2="174.8" y2="-1364.63" gradientTransform="matrix(0.96, -0.29, -0.29, -0.96, -546.68, -1461.96)" xlink:href="#Unbenannter_Verlauf_6"/><linearGradient id="Unbenannter_Verlauf_6-35" x1="170.96" y1="-1284.41" x2="170.63" y2="-1359.73" gradientTransform="matrix(0.96, -0.29, -0.29, -0.96, -546.68, -1461.96)" xlink:href="#Unbenannter_Verlauf_6"/><linearGradient id="Unbenannter_Verlauf_6-36" x1="171.5" y1="-1282.86" x2="171.17" y2="-1358.47" gradientTransform="matrix(0.96, -0.29, -0.29, -0.96, -546.68, -1461.96)" xlink:href="#Unbenannter_Verlauf_6"/><linearGradient id="Degradado_sin_nombre_303-11" x1="26.54" y1="-10.15" x2="152.11" y2="113.75" xlink:href="#Degradado_sin_nombre_303"/><linearGradient id="Unbenannter_Verlauf_6-37" x1="309.77" y1="-1377.94" x2="309.48" y2="-1443.34" gradientTransform="matrix(1, -0.04, -0.04, -1, -258.97, -1624.6)" xlink:href="#Unbenannter_Verlauf_6"/><linearGradient id="Unbenannter_Verlauf_6-38" x1="312.74" y1="-1379.31" x2="312.45" y2="-1444.45" gradientTransform="matrix(1, -0.04, -0.04, -1, -258.97, -1624.6)" xlink:href="#Unbenannter_Verlauf_6"/><linearGradient id="Unbenannter_Verlauf_6-39" x1="309.08" y1="-1373.98" x2="308.79" y2="-1440.14" gradientTransform="matrix(1, -0.04, -0.04, -1, -258.97, -1624.6)" xlink:href="#Unbenannter_Verlauf_6"/><linearGradient id="Unbenannter_Verlauf_6-40" x1="309.56" y1="-1372.62" x2="309.26" y2="-1439.04" gradientTransform="matrix(1, -0.04, -0.04, -1, -258.97, -1624.6)" xlink:href="#Unbenannter_Verlauf_6"/><linearGradient id="Degradado_sin_nombre_303-12" x1="33.77" y1="-17.47" x2="159.34" y2="106.43" xlink:href="#Degradado_sin_nombre_303"/><linearGradient id="Unbenannter_Verlauf_6-41" x1="453.35" y1="-1446.15" x2="453.12" y2="-1499.72" gradientTransform="matrix(0.97, 0.22, 0.22, -0.97, 61.76, -1706.34)" xlink:href="#Unbenannter_Verlauf_6"/><linearGradient id="Unbenannter_Verlauf_6-42" x1="455.78" y1="-1447.27" x2="455.55" y2="-1500.62" gradientTransform="matrix(0.97, 0.22, 0.22, -0.97, 61.76, -1706.34)" xlink:href="#Unbenannter_Verlauf_6"/><linearGradient id="Unbenannter_Verlauf_6-43" x1="452.79" y1="-1442.91" x2="452.55" y2="-1497.1" gradientTransform="matrix(0.97, 0.22, 0.22, -0.97, 61.76, -1706.34)" xlink:href="#Unbenannter_Verlauf_6"/><linearGradient id="Unbenannter_Verlauf_6-44" x1="453.18" y1="-1441.79" x2="452.94" y2="-1496.19" gradientTransform="matrix(0.97, 0.22, 0.22, -0.97, 61.76, -1706.34)" xlink:href="#Unbenannter_Verlauf_6"/><linearGradient id="Degradado_sin_nombre_303-13" x1="-9.65" y1="26.53" x2="115.92" y2="150.43" xlink:href="#Degradado_sin_nombre_303"/><linearGradient id="Unbenannter_Verlauf_6-45" x1="113.4" y1="-386.62" x2="112.99" y2="-481.04" gradientTransform="translate(251.85 968.58) rotate(-17.3)" xlink:href="#Unbenannter_Verlauf_6"/><linearGradient id="Unbenannter_Verlauf_6-46" x1="117.47" y1="-394.4" x2="117.06" y2="-487.36" gradientTransform="translate(251.85 968.58) rotate(-17.3)" xlink:href="#Unbenannter_Verlauf_6"/><linearGradient id="Unbenannter_Verlauf_6-47" x1="112.84" y1="-363.85" x2="112.41" y2="-462.65" gradientTransform="translate(251.85 968.58) rotate(-17.3)" xlink:href="#Unbenannter_Verlauf_6"/><linearGradient id="Unbenannter_Verlauf_6-48" x1="113.73" y1="-356.06" x2="113.29" y2="-456.3" gradientTransform="translate(251.85 968.58) rotate(-17.3)" xlink:href="#Unbenannter_Verlauf_6"/><linearGradient id="Degradado_sin_nombre_303-14" x1="1.15" y1="15.59" x2="126.72" y2="139.49" xlink:href="#Degradado_sin_nombre_303"/><linearGradient id="Unbenannter_Verlauf_6-49" x1="43.91" y1="-579.75" x2="43.58" y2="-654.55" gradientTransform="translate(619.98 929.49) rotate(-34.14)" xlink:href="#Unbenannter_Verlauf_6"/><linearGradient id="Unbenannter_Verlauf_6-50" x1="47.2" y1="-586.64" x2="46.88" y2="-660.15" gradientTransform="translate(619.98 929.49) rotate(-34.14)" xlink:href="#Unbenannter_Verlauf_6"/><linearGradient id="Unbenannter_Verlauf_6-51" x1="43.51" y1="-559.58" x2="43.16" y2="-638.26" gradientTransform="translate(619.98 929.49) rotate(-34.14)" xlink:href="#Unbenannter_Verlauf_6"/><linearGradient id="Unbenannter_Verlauf_6-52" x1="44.26" y1="-552.67" x2="43.91" y2="-632.64" gradientTransform="translate(619.98 929.49) rotate(-34.14)" xlink:href="#Unbenannter_Verlauf_6"/><linearGradient id="Degradado_sin_nombre_303-15" x1="10.08" y1="6.54" x2="135.65" y2="130.44" xlink:href="#Degradado_sin_nombre_303"/><linearGradient id="Unbenannter_Verlauf_6-53" x1="9.52" y1="-742.32" x2="9.24" y2="-805.39" gradientTransform="translate(925.96 812.86) rotate(-49.14)" xlink:href="#Unbenannter_Verlauf_6"/><linearGradient id="Unbenannter_Verlauf_6-54" x1="12.29" y1="-748.13" x2="12.02" y2="-810.1" gradientTransform="translate(925.96 812.86) rotate(-49.14)" xlink:href="#Unbenannter_Verlauf_6"/><linearGradient id="Unbenannter_Verlauf_6-55" x1="9.18" y1="-725.31" x2="8.88" y2="-791.65" gradientTransform="translate(925.96 812.86) rotate(-49.14)" xlink:href="#Unbenannter_Verlauf_6"/><linearGradient id="Unbenannter_Verlauf_6-56" x1="9.81" y1="-719.49" x2="9.51" y2="-786.91" gradientTransform="translate(925.96 812.86) rotate(-49.14)" xlink:href="#Unbenannter_Verlauf_6"/><linearGradient id="Degradado_sin_nombre_303-16" x1="19.84" y1="-3.36" x2="145.42" y2="120.54" xlink:href="#Degradado_sin_nombre_303"/><linearGradient id="Unbenannter_Verlauf_6-57" x1="3.9" y1="-917.91" x2="3.68" y2="-967.78" gradientTransform="translate(1189.64 620.65) rotate(-64.14)" xlink:href="#Unbenannter_Verlauf_6"/><linearGradient id="Unbenannter_Verlauf_6-58" x1="6.1" y1="-922.5" x2="5.88" y2="-971.5" gradientTransform="translate(1189.64 620.65) rotate(-64.14)" xlink:href="#Unbenannter_Verlauf_6"/><linearGradient id="Unbenannter_Verlauf_6-59" x1="3.64" y1="-904.46" x2="3.4" y2="-956.92" gradientTransform="translate(1189.64 620.65) rotate(-64.14)" xlink:href="#Unbenannter_Verlauf_6"/><linearGradient id="Unbenannter_Verlauf_6-60" x1="4.14" y1="-899.86" x2="3.9" y2="-953.17" gradientTransform="translate(1189.64 620.65) rotate(-64.14)" xlink:href="#Unbenannter_Verlauf_6"/><linearGradient id="Degradado_sin_nombre_303-17" x1="25.08" y1="-8.66" x2="150.65" y2="115.24" xlink:href="#Degradado_sin_nombre_303"/><linearGradient id="Unbenannter_Verlauf_6-61" x1="19.16" y1="-1026.02" x2="18.94" y2="-1075.89" gradientTransform="matrix(0.19, -0.98, 0.98, 0.19, 1396.83, 366.47)" xlink:href="#Unbenannter_Verlauf_6"/><linearGradient id="Unbenannter_Verlauf_6-62" x1="21.35" y1="-1030.62" x2="21.14" y2="-1079.62" gradientTransform="matrix(0.19, -0.98, 0.98, 0.19, 1396.83, 366.47)" xlink:href="#Unbenannter_Verlauf_6"/><linearGradient id="Unbenannter_Verlauf_6-63" x1="18.89" y1="-1012.57" x2="18.66" y2="-1065.03" gradientTransform="matrix(0.19, -0.98, 0.98, 0.19, 1396.83, 366.47)" xlink:href="#Unbenannter_Verlauf_6"/><linearGradient id="Unbenannter_Verlauf_6-64" x1="19.39" y1="-1007.97" x2="19.16" y2="-1061.28" gradientTransform="matrix(0.19, -0.98, 0.98, 0.19, 1396.83, 366.47)" xlink:href="#Unbenannter_Verlauf_6"/><linearGradient id="Degradado_sin_nombre_303-18" x1="-7.7" y1="24.56" x2="117.87" y2="148.46" xlink:href="#Degradado_sin_nombre_303"/><linearGradient id="Unbenannter_Verlauf_6-65" x1="58.67" y1="-452.33" x2="58.26" y2="-544.8" gradientTransform="translate(450.08 970.22) rotate(-25.35)" xlink:href="#Unbenannter_Verlauf_6"/><linearGradient id="Unbenannter_Verlauf_6-66" x1="62.86" y1="-454.26" x2="62.46" y2="-546.37" gradientTransform="translate(450.08 970.22) rotate(-25.35)" xlink:href="#Unbenannter_Verlauf_6"/><linearGradient id="Unbenannter_Verlauf_6-67" x1="57.69" y1="-446.74" x2="57.28" y2="-540.29" gradientTransform="translate(450.08 970.22) rotate(-25.35)" xlink:href="#Unbenannter_Verlauf_6"/><linearGradient id="Unbenannter_Verlauf_6-68" x1="58.37" y1="-444.82" x2="57.95" y2="-538.72" gradientTransform="translate(450.08 970.22) rotate(-25.35)" xlink:href="#Unbenannter_Verlauf_6"/><linearGradient id="Degradado_sin_nombre_303-19" x1="-0.78" y1="17.54" x2="124.79" y2="141.44" xlink:href="#Degradado_sin_nombre_303"/><linearGradient id="Unbenannter_Verlauf_6-69" x1="7.78" y1="-591.6" x2="7.41" y2="-675.32" gradientTransform="matrix(0.76, -0.65, 0.65, 0.76, 772.07, 895.89)" xlink:href="#Unbenannter_Verlauf_6"/><linearGradient id="Unbenannter_Verlauf_6-70" x1="11.58" y1="-593.34" x2="11.21" y2="-676.74" gradientTransform="matrix(0.76, -0.65, 0.65, 0.76, 772.07, 895.89)" xlink:href="#Unbenannter_Verlauf_6"/><linearGradient id="Unbenannter_Verlauf_6-71" x1="6.9" y1="-586.53" x2="6.52" y2="-671.23" gradientTransform="matrix(0.76, -0.65, 0.65, 0.76, 772.07, 895.89)" xlink:href="#Unbenannter_Verlauf_6"/><linearGradient id="Unbenannter_Verlauf_6-72" x1="7.51" y1="-584.79" x2="7.13" y2="-669.82" gradientTransform="matrix(0.76, -0.65, 0.65, 0.76, 772.07, 895.89)" xlink:href="#Unbenannter_Verlauf_6"/><linearGradient id="Degradado_sin_nombre_303-20" x1="8.14" y1="8.51" x2="133.71" y2="132.41" xlink:href="#Degradado_sin_nombre_303"/><linearGradient id="Unbenannter_Verlauf_6-73" x1="-17.11" y1="-743.92" x2="-17.44" y2="-818.37" gradientTransform="matrix(0.57, -0.82, 0.82, 0.57, 1063.44, 739.97)" xlink:href="#Unbenannter_Verlauf_6"/><linearGradient id="Unbenannter_Verlauf_6-74" x1="-13.73" y1="-745.47" x2="-14.06" y2="-819.63" gradientTransform="matrix(0.57, -0.82, 0.82, 0.57, 1063.44, 739.97)" xlink:href="#Unbenannter_Verlauf_6"/><linearGradient id="Unbenannter_Verlauf_6-75" x1="-17.89" y1="-739.42" x2="-18.23" y2="-814.74" gradientTransform="matrix(0.57, -0.82, 0.82, 0.57, 1063.44, 739.97)" xlink:href="#Unbenannter_Verlauf_6"/><linearGradient id="Unbenannter_Verlauf_6-76" x1="-17.35" y1="-737.87" x2="-17.68" y2="-813.47" gradientTransform="matrix(0.57, -0.82, 0.82, 0.57, 1063.44, 739.97)" xlink:href="#Unbenannter_Verlauf_6"/><linearGradient id="Degradado_sin_nombre_303-21" x1="17.57" y1="-1.05" x2="143.14" y2="122.85" xlink:href="#Degradado_sin_nombre_303"/><linearGradient id="Unbenannter_Verlauf_6-77" x1="-13.31" y1="-900.63" x2="-13.6" y2="-966.03" gradientTransform="matrix(0.34, -0.94, 0.94, 0.34, 1305.67, 515.49)" xlink:href="#Unbenannter_Verlauf_6"/><linearGradient id="Unbenannter_Verlauf_6-78" x1="-10.34" y1="-901.99" x2="-10.63" y2="-967.14" gradientTransform="matrix(0.34, -0.94, 0.94, 0.34, 1305.67, 515.49)" xlink:href="#Unbenannter_Verlauf_6"/><linearGradient id="Unbenannter_Verlauf_6-79" x1="-14" y1="-896.67" x2="-14.29" y2="-962.83" gradientTransform="matrix(0.34, -0.94, 0.94, 0.34, 1305.67, 515.49)" xlink:href="#Unbenannter_Verlauf_6"/><linearGradient id="Unbenannter_Verlauf_6-80" x1="-13.52" y1="-895.3" x2="-13.82" y2="-961.72" gradientTransform="matrix(0.34, -0.94, 0.94, 0.34, 1305.67, 515.49)" xlink:href="#Unbenannter_Verlauf_6"/><linearGradient id="Degradado_sin_nombre_303-22" x1="26.84" y1="-10.45" x2="152.41" y2="113.45" xlink:href="#Degradado_sin_nombre_303"/><linearGradient id="Unbenannter_Verlauf_6-81" x1="18.64" y1="-1065.98" x2="18.4" y2="-1119.54" gradientTransform="matrix(0.08, -1, 1, 0.08, 1479.45, 234.68)" xlink:href="#Unbenannter_Verlauf_6"/><linearGradient id="Unbenannter_Verlauf_6-82" x1="21.07" y1="-1067.09" x2="20.83" y2="-1120.44" gradientTransform="matrix(0.08, -1, 1, 0.08, 1479.45, 234.68)" xlink:href="#Unbenannter_Verlauf_6"/><linearGradient id="Unbenannter_Verlauf_6-83" x1="18.07" y1="-1062.74" x2="17.83" y2="-1116.92" gradientTransform="matrix(0.08, -1, 1, 0.08, 1479.45, 234.68)" xlink:href="#Unbenannter_Verlauf_6"/><linearGradient id="Unbenannter_Verlauf_6-84" x1="18.46" y1="-1061.62" x2="18.22" y2="-1116.01" gradientTransform="matrix(0.08, -1, 1, 0.08, 1479.45, 234.68)" xlink:href="#Unbenannter_Verlauf_6"/></defs><g class="cls-1"><g id="OBJECTS"><path class="cls-2" d="M135.93,79.07c11.81-2.27,60.37-45,60.37-45l5.26,7s-25.91,17-37.92,26.3a101.91,101.91,0,0,0-19.51,20.22s-6.77,3.67-9.17.49S135.93,79.07,135.93,79.07Z"/><path class="cls-3" d="M141.51,81.8C56,125,27.57,166.18,27.57,166.18s33.54-12.64,65.35-41.53C117.94,101.93,141.51,81.8,141.51,81.8Z"/><path class="cls-4" d="M58.36,138.76s36.33-25.19,72.82-50.31c0,0-5.42,4.5-23.77,18Z"/><path class="cls-5" d="M71,126.83s25.74-20.42,52.52-34.28c0,0-9.3,5.47-23.44,14.59Z"/><path class="cls-6" d="M61.8,144.13s35.88-28.71,70.77-56c0,0-6.76,4.93-25.16,18.39Z"/><path class="cls-7" d="M73.57,137.8s30.19-22.2,51.87-42.6c0,0-9.7,7.17-22.94,18.62Z"/><path class="cls-8" d="M140.54,82.27C56.65,112.86,21.23,142,21.23,142a316.91,316.91,0,0,0,66.51-29.39C115.11,96.51,140.54,82.27,140.54,82.27Z"/><path class="cls-9" d="M54.76,122.57S92.33,104.75,130,87c0,0-5.81,3.19-25,12.77Z"/><path class="cls-10" d="M68.73,114.13s27.32-14.44,53.69-24.25c0,0-9.34,3.87-23.77,10.32Z"/><path class="cls-11" d="M56.16,126.35s38.16-20.3,75.11-39.63L105,99.74Z"/><path class="cls-12" d="M67.81,121.87s31.57-15.7,55.49-30.13c0,0-10.16,5.08-24.48,13.18Z"/><path class="cls-13" d="M141.8,81.74C70.24,88,36.67,103.28,36.67,103.28a255.57,255.57,0,0,0,57.8-9C119.07,87.51,141.8,81.74,141.8,81.74Z"/><path class="cls-14" d="M66.76,95.2s32.9-6,65.87-12c0,0-5.18,1.27-22.09,4.71Z"/><path class="cls-15" d="M79.36,91.55a426.5,426.5,0,0,1,46.78-7.67s-8.07,1.06-20.62,3.07Z"/><path class="cls-16" d="M67.06,98.43s33.88-7.83,66.61-15.16l-23.13,4.64Z"/><path class="cls-17" d="M77,97.37s27.8-5.63,49.39-11.86c0,0-9,1.83-21.77,5.14Z"/><path class="cls-18" d="M141.8,81.74c-59.65-10.48-90.31-5.4-90.31-5.4a215,215,0,0,0,49,5.3C122,81.48,141.8,81.74,141.8,81.74Z"/><path class="cls-19" d="M77.76,76.32s28.1,2.27,56.26,4.61c0,0-4.5-.1-19-1Z"/><path class="cls-20" d="M88.82,76.1a358.94,358.94,0,0,1,39.76,4s-6.8-.9-17.46-2Z"/><path class="cls-21" d="M77.29,79s29.3,1,57.55,2.19L115,80Z"/><path class="cls-22" d="M85.65,80.34s23.87,1.48,42.81,1.12c0,0-7.69-.47-18.85-.57Z"/><path class="cls-23" d="M141.8,81.74c-43.41-20.21-67.87-22.6-67.87-22.6a170.07,170.07,0,0,0,36.36,14.07C126.76,77.5,141.8,81.74,141.8,81.74Z"/><path class="cls-24" d="M94,64.5s21,7.48,42,15c0,0-3.41-1-14.32-4.65Z"/><path class="cls-25" d="M102.49,66.59a283.58,283.58,0,0,1,29.56,11.17s-5-2.08-12.93-5.1Z"/><path class="cls-26" d="M93.09,66.46s22.17,6.77,43.51,13.45l-14.9-5Z"/><path class="cls-27" d="M99.21,69.18s17.92,6,32.46,9.61c0,0-5.78-1.92-14.28-4.28Z"/><path class="cls-28" d="M141.8,81.74C105.1,51,82.1,42.34,82.1,42.34a170,170,0,0,0,31.47,23C128.37,73.75,141.8,81.74,141.8,81.74Z"/><path class="cls-29" d="M100.09,52.71s18.35,12.67,36.7,25.4c0,0-3-1.85-12.63-8.19Z"/><path class="cls-30" d="M107.75,56.93a283.44,283.44,0,0,1,25.66,18.44s-4.3-3.3-11.17-8.27Z"/><path class="cls-31" d="M98.71,54.37s19.65,12.28,38.54,24.26l-13.09-8.71Z"/><path class="cls-32" d="M103.91,58.58S119.67,69,132.78,76.27c0,0-5.08-3.36-12.68-7.83Z"/><path class="cls-33" d="M141.8,81.74C55.92,98.12,20.23,126.52,20.23,126.52s32.56-2.74,67.91-19.8C115.94,93.3,141.8,81.74,141.8,81.74Z"/><path class="cls-34" d="M54.3,110.47S92.61,97.66,131,84.94c0,0-5.91,2.55-25.47,9.72Z"/><path class="cls-35" d="M68.48,103.3S96.3,92,123.29,86.61c0,0-9.55,2.44-24.28,6.84Z"/><path class="cls-36" d="M55.88,115.89S94.73,100,132.35,85c0,0-7.2,2.59-26.78,9.68Z"/><path class="cls-37" d="M67.8,113.31s32.17-11.73,56.46-24c0,0-10.35,3.8-24.91,10.42Z"/><path class="cls-38" d="M141.8,81.74C62.85,75.94,25,92.42,25,92.42A195.24,195.24,0,0,0,89,91C116.47,85.79,141.8,81.74,141.8,81.74Z"/><path class="cls-39" d="M58.55,86.36s36.5-2.23,73.09-4.34c0,0-5.77.84-24.56,2.53Z"/><path class="cls-40" d="M72.62,83.42s27-3.35,51.85-1.76c0,0-8.92-.1-22.83.29Z"/><path class="cls-41" d="M58.65,91.47s37.71-4.82,74.12-9.11l-25.69,2.19Z"/><path class="cls-42" d="M69.69,92s30.88-2.72,55-7.74c0,0-10,.9-24.23,3.28Z"/><path class="cls-43" d="M141.8,81.74C75.32,58.59,39,64,39,64A173.53,173.53,0,0,0,94.33,77.55C119.11,79.39,141.8,81.74,141.8,81.74Z"/><path class="cls-44" d="M69.23,66.55S101.1,73,133,79.64c0,0-5.15-.6-21.68-3.48Z"/><path class="cls-45" d="M82,67.26s23.93,3.33,44.93,10.42c0,0-7.64-2.14-19.68-5Z"/><path class="cls-46" d="M68.14,71s33.5,4.54,65.76,9.23l-22.57-4Z"/><path class="cls-47" d="M77.49,74s27.16,4.78,49,6c0,0-8.75-1.52-21.56-2.77Z"/><path class="cls-48" d="M141.8,81.74C90.66,47,58.61,43.34,58.61,43.34A152.71,152.71,0,0,0,102.47,67.4C123.09,74.59,141.8,81.74,141.8,81.74Z"/><path class="cls-49" d="M83.68,52.35S109.25,65.1,134.82,78c0,0-4.23-1.68-17.6-7.88Z"/><path class="cls-50" d="M94.35,55.86s19.56,8.27,35.76,19.06c0,0-6-3.56-15.56-8.72Z"/><path class="cls-51" d="M81.76,55.85s27.39,11.46,53.69,22.78l-18.23-8.55Z"/><path class="cls-52" d="M89,60.52S111,70.74,129.23,76.77c0,0-7.08-3.28-17.67-7.25Z"/><path class="cls-53" d="M140.29,82.88c-33.09-38.34-57.67-48-57.67-48a124.77,124.77,0,0,0,29.6,28.33C127,73.25,140.29,82.88,140.29,82.88Z"/><path class="cls-54" d="M100.54,47.31s17.52,15.5,35,31.1c0,0-3-2.23-12.25-10Z"/><path class="cls-55" d="M108.24,52.34A205.94,205.94,0,0,1,132.49,75s-4-4.08-10.46-10.19Z"/><path class="cls-56" d="M98.28,49.67s19.24,14.87,37.65,29.4L123.32,68.44Z"/><path class="cls-57" d="M103,54.9s15.2,12.74,28.37,21.38c0,0-4.9-4.09-12.44-9.48Z"/><path class="cls-58" d="M140.74,82.05c-55.18,69.61-94.2,92.8-94.2,92.8a294.28,294.28,0,0,1,48.73-53.23C119.18,101.25,140.74,82.05,140.74,82.05Z"/><path class="cls-59" d="M75.56,149.77S104.27,120.18,133,90.46c0,0-4.86,4.42-20,19.36Z"/><path class="cls-60" d="M88,139.46s22.32-21,39.86-42.76c0,0-6.6,7.57-17.24,19.09Z"/><path class="cls-61" d="M72.3,147s31.31-29.22,61.29-57.64L113,109.82Z"/><path class="cls-62" d="M80.19,137.39S105,112.8,126.3,95.14c0,0-8,7.9-20.23,18.68Z"/><path class="cls-63" d="M141.69,81.59C114,147.87,89.32,175.26,89.32,175.26a255.51,255.51,0,0,1,26.06-52.37C129.3,101.5,141.69,81.59,141.69,81.59Z"/><path class="cls-64" d="M106.14,149s15.7-29.53,31.38-59.15c0,0-2.78,4.56-11.18,19.63Z"/><path class="cls-65" d="M113.43,138.12A425.78,425.78,0,0,0,134.9,95.86s-3.45,7.37-9.17,18.72Z"/><path class="cls-66" d="M103.15,147.77s17.72-29.92,34.61-58.9l-11.42,20.64Z"/><path class="cls-67" d="M107.18,138.57S121,113.78,133.43,95.09c0,0-4.45,8-11.49,19.19Z"/><path class="cls-68" d="M141.69,81.59c-8.08,60-22.21,87.7-22.21,87.7a215.53,215.53,0,0,1,9.8-48.33C136,100.5,141.69,81.59,141.69,81.59Z"/><path class="cls-69" d="M127.45,144.26s6.35-27.47,12.65-55c0,0-1.27,4.32-4.82,18.42Z"/><path class="cls-70" d="M131,133.79a357.88,357.88,0,0,0,8.27-39.1s-1.21,6.75-3.39,17.25Z"/><path class="cls-71" d="M124.74,143.89s7.9-28.23,15.34-55.51l-4.8,19.29Z"/><path class="cls-72" d="M126,135.52s5.81-23.19,11.89-41.13c0,0-1.88,7.46-5.17,18.13Z"/><path class="cls-73" d="M141.69,81.59c6.11,47.49,1,71.52,1,71.52a170.18,170.18,0,0,1-2.4-38.91C141.17,97.21,141.69,81.59,141.69,81.59Z"/><path class="cls-74" d="M143.64,132.37s-.77-22.28-1.6-44.61c0,0-.08,3.56.09,15.06Z"/><path class="cls-75" d="M144.22,123.64a283.11,283.11,0,0,0-1.69-31.55s.46,5.4.94,13.86Z"/><path class="cls-76" d="M141.5,132.63s.25-23.17.35-45.53c0,0,.08,4.22.28,15.72Z"/><path class="cls-77" d="M140.76,126s-.31-18.9.66-33.85c0,0,.09,6.09-.23,14.91Z"/><path class="cls-78" d="M141.69,81.59c18.19,44.28,19.46,68.83,19.46,68.83a170.35,170.35,0,0,1-12.39-37C145.23,96.81,141.69,81.59,141.69,81.59Z"/><path class="cls-79" d="M156.72,130.13s-6.52-21.32-13.09-42.67c0,0,.84,3.46,4,14.52Z"/><path class="cls-80" d="M155,121.55a283.57,283.57,0,0,0-9.79-30s1.84,5.1,4.5,13.15Z"/><path class="cls-81" d="M154.71,130.94S149,108.49,143.27,86.87c0,0,1.17,4.06,4.34,15.11Z"/><path class="cls-82" d="M152.28,124.71s-5.19-18.18-8.12-32.87c0,0,1.66,5.86,3.63,14.46Z"/><path class="cls-83" d="M141.69,81.59c-41.63,76.89-79.5,102.3-79.5,102.3s12.47-30.21,39.44-58.72C122.84,102.74,141.69,81.59,141.69,81.59Z"/><path class="cls-84" d="M87.81,156.27s23.81-32.63,47.56-65.4c0,0-4.22,4.87-17,21.34Z"/><path class="cls-85" d="M98.93,144.93s19.18-23.09,32.51-47.18c0,0-5.22,8.36-13.87,21.07Z"/><path class="cls-86" d="M83.12,153.13s26.94-32.2,52.61-63.51l-17.34,22.59Z"/><path class="cls-87" d="M89.19,142.55S110.11,115.44,129.13,96c0,0-6.76,8.72-17.47,20.59Z"/><path class="cls-88" d="M141.69,81.59c-18.39,77-45.56,108.1-45.56,108.1a195.17,195.17,0,0,1,20.73-60.6C130.16,104.5,141.69,81.59,141.69,81.59Z"/><path class="cls-89" d="M112.07,159.53s13.18-34.12,26.27-68.35c0,0-2.55,5.25-9.85,22.64Z"/><path class="cls-90" d="M119.14,147s11.36-24.7,17.37-48.88c0,0-2.6,8.53-7.19,21.67Z"/><path class="cls-91" d="M107.23,157.88s16-34.47,31.13-67.88c0,0-2.64,6.4-9.87,23.82Z"/><path class="cls-92" d="M110.06,147.21s11.94-28.62,24-50.07c0,0-3.88,9.2-10.46,22.1Z"/><path class="cls-93" d="M141.69,81.59c1.93,70.37-14.25,103.33-14.25,103.33a173.28,173.28,0,0,1,3.86-56.82C137.06,103.92,141.69,81.59,141.69,81.59Z"/><path class="cls-94" d="M134.19,155.35S137.65,123,141,90.6c0,0-1,5.09-3.25,21.71Z"/><path class="cls-95" d="M137.38,143s4.07-23.83,3.67-46c0,0-.27,7.94-1.19,20.28Z"/><path class="cls-96" d="M129.65,155.05s5.82-33.3,11.12-65.47c0,0-.8,6.1-3,22.73Z"/><path class="cls-97" d="M129.62,145.23s3.68-27.33,9.12-48.54c0,0-1.21,8.8-3.9,21.39Z"/><path class="cls-98" d="M141.69,81.59c17.63,59.26,11.4,90.91,11.4,90.91a152.37,152.37,0,0,1-9.64-49.09C142.84,101.59,141.69,81.59,141.69,81.59Z"/><path class="cls-99" d="M152.09,145.88s-4.41-28.23-8.92-56.5c0,0,.32,4.55,2.18,19.16Z"/><path class="cls-100" d="M152,134.64s-2-21.14-7.33-39.85c0,0,1.57,6.8,3.59,17.47Z"/><path class="cls-101" d="M148.17,146.65s-2.62-29.58-5.45-58.07c0,0,.71,5.36,2.63,20Z"/><path class="cls-102" d="M145.92,138.32s-3.09-24-3.3-43.25c0,0,1,7.74,1.55,19Z"/><path class="cls-103" d="M141.82,82.21c26.52,43.14,28.3,69.5,28.3,69.5a124.84,124.84,0,0,1-18-36.79C147,97.79,141.82,82.21,141.82,82.21Z"/><path class="cls-104" d="M163.68,130.86s-9.47-21.39-19-42.8c0,0,1.22,3.53,5.79,14.7Z"/><path class="cls-105" d="M161.22,122A206.34,206.34,0,0,0,147,92s2.69,5,6.55,13.06Z"/><path class="cls-106" d="M160.75,132.31s-8.35-22.84-16.62-44.79l6.31,15.24Z"/><path class="cls-107" d="M157.2,126.2s-7.54-18.35-11.78-33.52c0,0,2.41,5.91,5.27,14.73Z"/></g></g></svg>