<?xml version="1.0" encoding="utf-8"?>
<!-- Generator: Adobe Illustrator 25.2.0, SVG Export Plug-In . SVG Version: 6.00 Build 0)  -->
<svg version="1.1" id="Calque_1" xmlns="http://www.w3.org/2000/svg" xmlns:xlink="http://www.w3.org/1999/xlink" x="0px" y="0px"
	 viewBox="0 0 144 144" style="enable-background:new 0 0 144 144;" xml:space="preserve">
<style type="text/css">
	.st0{fill:#FFFFFF;}
</style>
<g>
	<path class="st0" d="M76.3,70.7c-5.2,3.4-11.5,4.6-17.6,3.3c-6.1-1.3-11.4-4.9-14.8-10.1c-1.9-2.9-3.1-6.2-3.6-9.6
		c-0.1-0.8-0.9-1.4-1.7-1.3c-0.8,0.1-1.4,0.9-1.3,1.7c0.5,3.9,1.9,7.5,4.1,10.9c3.9,5.9,9.8,10,16.7,11.4c1.8,0.4,3.7,0.6,5.5,0.6
		c5.1,0,10-1.5,14.4-4.3c5.9-3.9,10-9.8,11.4-16.7s0.1-14-3.7-19.9c-3.9-5.9-9.8-10-16.7-11.4c-6.9-1.5-14-0.1-19.9,3.7
		c-3.5,2.3-6.5,5.5-8.6,9.1c-0.4,0.7-0.2,1.6,0.6,2c0.7,0.4,1.6,0.2,2-0.6c1.9-3.3,4.4-6,7.6-8.1c5.2-3.4,11.5-4.6,17.6-3.3
		c6.1,1.3,11.4,4.9,14.8,10.1c3.4,5.2,4.6,11.5,3.3,17.6S81.6,67.2,76.3,70.7z"/>
	<path class="st0" d="M112.6,113.3c-0.5-0.7-1.4-0.9-2.1-0.4c-0.7,0.5-0.9,1.4-0.4,2.1c2.6,3.7,1.4,7-1,8.6
		c-2.3,1.6-5.8,1.6-8.3-2.1L76.6,81.5c-0.1-0.2-0.3-0.4-0.5-0.5c-0.4-0.6-1.1-0.9-1.8-0.6c-15.9,6-33.8-2-39.8-18
		c-2.9-7.7-2.7-16.1,0.7-23.7c3.4-7.5,9.5-13.3,17.2-16.2c7.7-2.9,16.1-2.7,23.7,0.7c7.5,3.4,13.3,9.5,16.2,17.3
		c4.3,11.3,1.5,24.2-7,32.7l-0.8,0.8l10.8,17.6c0.3,0.5,0.8,0.7,1.3,0.7c0.3,0,0.5-0.1,0.8-0.2c0.7-0.4,0.9-1.4,0.5-2.1l-9.6-15.6
		c8.7-9.4,11.4-23,6.9-35.1c-3.2-8.5-9.5-15.2-17.8-18.9c-8.3-3.7-17.5-4-25.9-0.8c-8.5,3.2-15.2,9.5-18.9,17.8s-4,17.5-0.8,25.9
		c6.5,17.2,25.5,26,42.7,20.1l24,39.7c2.2,3.1,5,4.4,7.7,4.4c1.8,0,3.5-0.6,4.9-1.5C114.4,123.6,116.2,118.5,112.6,113.3z"/>
</g>
</svg>
